<?xml version="1.0" encoding="UTF-8"?>
<svg width="90px" height="91px" viewBox="0 0 90 91" version="1.1" xmlns="http://www.w3.org/2000/svg" xmlns:xlink="http://www.w3.org/1999/xlink">
    <!-- Generator: Sketch 61.2 (89653) - https://sketch.com -->
    <title>auftragfreigabe</title>
    <desc>Created with Sketch.</desc>
    <g id="Page-1" stroke="none" stroke-width="1" fill="none" fill-rule="evenodd">
        <g id="01-homepage" transform="translate(-103.000000, -452.000000)">
            <g id="tiles-copy-3" transform="translate(57.000000, 434.000000)">
                <g id="action-items-copy">
                    <g id="auftragfreigabe" transform="translate(46.000000, 18.000000)">
                        <g id="Group-3" transform="translate(0.000000, 0.503403)">
                            <circle id="Oval" fill="#FFEEDD" cx="45" cy="45" r="45"></circle>
                            <g id="Group" transform="translate(27.000000, 20.000000)">
                                <path d="M1.01993428,48.8004217 L35.56614,48.8004217 C35.566019,47.3115568 35.5653253,45.9741316 35.5638305,43.8520365 C35.5620699,41.3525933 35.5616763,40.6815725 35.5615281,39.527761 C35.5610919,36.1299611 35.5660892,33.2535444 35.5801353,29.7630838 C35.5846456,28.4062992 35.059401,27.3801947 33.9381414,26.4852982 C32.6901305,25.4888757 31.194048,24.8287881 29.0874822,24.2503647 C28.5658698,24.1069706 28.0462948,23.9810307 27.2498683,23.799911 C27.0612485,23.7570965 27.0612485,23.7570965 26.8718306,23.7142502 C26.7799933,23.6934737 26.6969622,23.6746666 26.6207896,23.6573777 C25.9167237,25.0063425 25.2630275,26.2019528 24.1128918,28.2711699 C24.099302,28.2956193 24.099302,28.2956193 24.0857131,28.3200664 C22.6350025,30.9299735 22.0062603,32.0846534 21.1267008,33.7914312 L19.4349974,37.0741674 L19.2391985,33.3863658 C19.1691263,32.0665794 19.0631215,31.1446633 18.8037577,29.3276474 C18.7894023,29.2271032 18.7894023,29.2271032 18.7750315,29.1264027 C18.563318,27.6421271 18.4536749,26.7410277 18.3825236,25.7079609 C18.1211766,29.4046813 17.9431533,31.9259009 17.7609664,34.5121876 L17.5362063,37.7028323 L15.9035269,34.9523617 C15.2560005,33.8615152 14.7748165,32.9604351 13.8024485,31.0660812 C13.4045067,30.2912965 13.4045026,30.2912886 13.0064264,29.516374 C11.5907208,26.7604438 10.8286442,25.2747957 10.015216,23.6823943 C9.84645105,23.7198299 9.64864436,23.7606932 9.3772839,23.8154458 C9.3719735,23.8165173 9.3719735,23.8165173 9.36666705,23.817588 C8.92682661,23.9063375 8.72709205,23.9491161 8.49321279,24.0077677 C6.15589373,24.5942594 4.51413418,25.2344789 3.08379306,26.2144551 C1.64418934,27.2009048 0.988505027,28.4024488 0.999977163,30.1045478 C1.02311524,33.5281725 1.03079611,36.3350678 1.02914825,39.6879261 C1.02862565,40.7512651 1.02792388,41.3270823 1.02463394,43.6785048 C1.02157118,45.8675554 1.02016235,47.2461128 1.01993434,48.8004217 Z M18.4718162,24.4450248 C18.5854707,24.1942113 18.7781206,23.9801216 19.0566936,23.8087926 C18.9714339,23.8602768 18.9831517,23.8420142 18.9976757,23.8022217 C19.1401132,23.414885 19.1264448,22.9921233 18.9568139,22.4945152 C18.6864092,22.4873434 18.4539606,22.4871548 17.9455665,22.4909139 C17.8718602,22.491459 17.8328576,22.4917475 17.7956143,22.4919898 C17.7166151,22.8101269 17.682743,23.0488368 17.6894619,23.2536175 C17.6896006,23.2579712 17.6896006,23.2579712 17.6897385,23.2623089 C17.6931275,23.3688758 17.6946535,23.4114485 17.6972387,23.4646258 C17.7146847,23.8234895 17.7242401,23.8443131 17.7960949,23.8713691 L18.4938014,24.1340817 L18.4718162,24.4450248 Z M18.9413763,22.4502298 C18.9413068,22.4500347 18.9412373,22.4498396 18.9411678,22.4496444 C18.9413763,22.4502297 18.94324,22.4519056 18.9461138,22.4542893 Z" id="Stroke-1" stroke="#A61127" stroke-width="2"></path>
                                <path d="M10.5886764,7.98028562 C10.4845948,6.00953732 10.6947988,4.42518358 11.7206492,3.03130603 C12.9145267,1.40817677 14.5553431,0.536748203 16.4913975,0.182326434 C18.62269,-0.208149756 20.6859553,0.00409514192 22.6131662,1.05715637 C24.9063635,2.30953732 26.0519417,4.27484344 26.0574573,6.87280262 C26.0621458,8.98504752 25.8362954,11.0775645 25.1281322,13.0857278 C24.4866356,14.9034149 23.560105,16.531306 22.030173,17.7830067 C19.8573839,19.5591972 16.8811934,19.5877686 14.6669077,17.846272 C13.0988805,16.613619 12.1662274,14.9802856 11.5104451,13.1469523 C10.8771118,11.3775645 10.6233703,9.54355092 10.5886764,7.98028562" id="Fill-3" fill="#3D3D3D"></path>
                            </g>
                        </g>
                    </g>
                </g>
            </g>
        </g>
    </g>
</svg>