<?xml version="1.0" encoding="UTF-8"?>
<svg width="27px" height="27px" viewBox="0 0 27 27" version="1.1" xmlns="http://www.w3.org/2000/svg" xmlns:xlink="http://www.w3.org/1999/xlink">
    <!-- Generator: Sketch 61.2 (89653) - https://sketch.com -->
    <title>Group 7</title>
    <desc>Created with Sketch.</desc>
    <g id="Page-1" stroke="none" stroke-width="1" fill="none" fill-rule="evenodd">
        <g id="03-after-login-order-pending" transform="translate(-1150.000000, -35.000000)">
            <g id="Group-7" transform="translate(1151.000000, 36.000000)">
                <path d="M24.945119,12.4740476 C24.9427381,19.3538095 19.3391667,24.9514286 12.457619,24.9502383 C5.54214286,24.9490476 -0.034047619,19.344881 0.000316742112,12.3734524 C0.0338095238,5.50261905 5.63916667,-0.064047619 12.5909524,0.000238095238 C19.3463095,0.0633333333 24.9052381,5.50440476 24.945119,12.4740476 Z" id="Stroke-1" stroke="#FFFFFF" stroke-width="2"></path>
                <path d="M15.0434524,18.1302976 C14.9779762,18.3933929 14.9208333,18.6291071 14.8565476,18.8624405 C14.847619,18.8951786 14.8059524,18.9302976 14.7714286,18.9427976 C14.1,19.1808929 13.4589286,19.5225595 12.7375,19.5922024 C12.1422619,19.6493452 11.5428571,19.6523214 10.989881,19.3660119 C10.3357143,19.0273214 9.99642857,18.4999405 10.0011905,17.7439881 C10.0071429,16.896369 10.2785714,16.1076786 10.4886905,15.3035119 C10.7035714,14.4785119 10.922619,13.6541071 11.1113095,12.8225595 C11.160119,12.6064881 11.1202381,12.3618452 11.0845238,12.13625 C11.0440476,11.883869 10.8702381,11.7392262 10.6166667,11.6880357 C10.2005952,11.6041071 9.79642857,11.638631 9.39940476,11.78625 C9.30357143,11.8219643 9.20416667,11.8469643 9.0672619,11.888631 C9.13333333,11.6231548 9.18571429,11.3939881 9.25238095,11.1695833 C9.26666667,11.1219643 9.3297619,11.0755357 9.38095238,11.0552976 C10.0690476,10.7755357 10.7577381,10.4957738 11.5035714,10.4154167 C12.1357143,10.3469643 12.7547619,10.3939881 13.302381,10.7570833 C13.8494048,11.1201786 14.0732143,11.6451786 14.0654762,12.2999405 C14.0559524,13.1922024 13.7440476,14.0148214 13.5261905,14.8594643 C13.3392857,15.583869 13.147619,16.3070833 12.9803571,17.03625 C12.9315476,17.2493452 12.9339286,17.4820833 12.9535714,17.7017262 C12.9922619,18.1326786 13.2005952,18.3076786 13.6363095,18.3517262 C14.072619,18.3951786 14.4857143,18.3082738 14.8952381,18.176131 C14.9327381,18.163631 14.9708333,18.1529167 15.0434524,18.1302976" id="Fill-3" fill="#FFFFFF"></path>
                <path d="M13.494881,5.68202381 C14.4270238,5.6772619 15.1925,6.35761905 15.2264286,7.21595238 C15.2663095,8.21416667 14.3627381,9.01952381 13.3371429,8.91238095 C12.7044048,8.84630952 12.2109524,8.55464286 11.9216667,7.99392857 C11.3960714,6.97369048 12.1371429,5.7552381 13.3061905,5.68261905 C13.3686905,5.67845238 13.432381,5.68202381 13.494881,5.68202381" id="Fill-5" fill="#FFFFFF"></path>
            </g>
        </g>
    </g>
</svg>