<?xml version="1.0" encoding="UTF-8"?>
<svg width="90px" height="91px" viewBox="0 0 90 91" version="1.1" xmlns="http://www.w3.org/2000/svg" xmlns:xlink="http://www.w3.org/1999/xlink">
    <!-- Generator: Sketch 61.2 (89653) - https://sketch.com -->
    <title>line-performance</title>
    <desc>Created with Sketch.</desc>
    <defs>
        <polygon id="path-1" points="0 55.8869902 41.8668852 55.8869902 41.8668852 -9.18032787e-05 0 -9.18032787e-05"></polygon>
    </defs>
    <g id="Page-1" stroke="none" stroke-width="1" fill="none" fill-rule="evenodd">
        <g id="01-homepage" transform="translate(-825.000000, -452.000000)">
            <g id="tiles-copy-7" transform="translate(779.000000, 434.000000)">
                <g id="action-items-copy">
                    <g id="line-performance" transform="translate(46.000000, 18.000000)">
                        <g id="Group-3" transform="translate(0.000000, 0.503403)">
                            <circle id="Oval" fill="#FFEEDD" cx="45" cy="45" r="45"></circle>
                            <g id="Group-18" transform="translate(24.000000, 17.000000)">
                                <path d="M35.6887082,49.6705311 L35.6887082,53.7989246 C37.0584131,52.4439082 38.456577,51.0613508 39.8639213,49.6705311 L35.6887082,49.6705311 Z M40.6240525,48.4431213 L40.6240525,1.2571541 L1.23677377,1.2571541 L1.23677377,54.6168918 L34.4456918,54.6168918 L34.4456918,48.4431213 L40.6240525,48.4431213 Z M0.000183606557,0.000367213115 L41.8661763,0.000367213115 L41.8661763,0.385022951 C41.8661763,16.6479738 41.8670689,32.9109246 41.8578885,49.1738754 C41.8578885,49.3464656 41.7670033,49.5612852 41.6449049,49.6843016 C39.6628721,51.6856131 37.670741,53.6777443 35.6712656,55.6616131 C35.5546754,55.7782033 35.3572984,55.8782689 35.1966426,55.8782689 C23.532118,55.8874492 11.8685115,55.8865566 0.203986885,55.8865566 C0.145232787,55.8865566 0.0873967213,55.881023 0.000183606557,55.8764328 L0.000183606557,0.000367213115 Z" id="Fill-1" fill="#A61127"></path>
                                <path d="M6.62278033,16.6881836 C6.57687869,20.1133639 9.44205902,22.8610361 12.7130098,22.8482285 C16.1005508,22.8353311 18.9124852,20.1115279 18.8858623,16.756118 C18.8592393,13.0904131 15.9435672,10.5832656 12.7616656,10.5712867 C9.42369836,10.5584787 6.58238689,13.3355279 6.62278033,16.6881836 M12.745141,9.36224843 C16.8588459,9.36224843 20.1059279,12.6506754 20.0976813,16.8084459 C20.0903213,20.8000525 16.7450098,24.1279213 12.7001574,24.0792656 C8.55615738,24.0296918 5.27969836,20.7752656 5.38527213,16.4439869 C5.48166557,12.5249049 8.72507541,9.35034754 12.745141,9.36224843" id="Fill-3" fill="#A61127"></path>
                                <mask id="mask-2" fill="white">
                                    <use xlink:href="#path-1"></use>
                                </mask>
                                <g id="Clip-6"></g>
                                <polygon id="Fill-5" fill="#3D3D3D" mask="url(#mask-2)" points="17.3618361 33.2712525 35.5352131 33.2712525 35.5352131 32.0704656 17.3618361 32.0704656"></polygon>
                                <polygon id="Fill-7" fill="#3D3D3D" mask="url(#mask-2)" points="17.3554098 42.6076459 35.5443934 42.6076459 35.5443934 41.4298098 17.3554098 41.4298098"></polygon>
                                <polygon id="Fill-8" fill="#3D3D3D" mask="url(#mask-2)" points="17.3535738 45.6757115 35.5352131 45.6757115 35.5352131 44.485941 17.3535738 44.485941"></polygon>
                                <polygon id="Fill-9" fill="#3D3D3D" mask="url(#mask-2)" points="17.3627541 36.311777 35.5407213 36.311777 35.5407213 35.1495475 17.3627541 35.1495475"></polygon>
                                <polygon id="Fill-10" fill="#A61127" mask="url(#mask-2)" points="29.3761311 23.7007607 30.5291803 23.7007607 30.5291803 9.67321967 29.3761311 9.67321967"></polygon>
                                <path d="M14.2270295,31.6734164 C12.534177,33.7279738 10.8725377,35.7467279 9.18794754,37.7921049 C8.22768525,36.8612197 7.27752131,35.9395148 6.30073443,34.993023 C6.6725377,34.5900066 7.02322623,34.2071869 7.41798033,33.7775475 C7.94034098,34.3531541 8.44066885,34.9058098 8.9795541,35.499777 C10.3712918,33.8115148 11.6794885,32.223318 13.0088,30.6084984 C13.4182426,30.9665311 13.8102426,31.3098754 14.2270295,31.6734164" id="Fill-11" fill="#3D3D3D" mask="url(#mask-2)"></path>
                                <path d="M9.12497049,47.2168131 C8.19683934,46.2078951 7.30542951,45.2384525 6.39015082,44.245141 C6.66923279,43.9394361 7.01349508,43.5621246 7.43028197,43.1049443 C7.93428197,43.6979934 8.42267541,44.274518 8.94503607,44.890518 C10.3753311,43.1536 11.6853639,41.5635672 13.0100852,39.9551738 C13.4232,40.3177967 13.8133639,40.661141 14.2255607,41.0228459 C12.5437246,43.0663869 10.875659,45.0906492 9.12497049,47.2168131" id="Fill-12" fill="#3D3D3D" mask="url(#mask-2)"></path>
                                <polygon id="Fill-13" fill="#A61127" mask="url(#mask-2)" points="31.8245246 23.6998426 32.9931803 23.6998426 32.9931803 14.1146623 31.8245246 14.1146623"></polygon>
                                <polygon id="Fill-14" fill="#A61127" mask="url(#mask-2)" points="26.9057049 23.7007607 28.0660984 23.7007607 28.0660984 14.4185311 26.9057049 14.4185311"></polygon>
                                <polygon id="Fill-15" fill="#A61127" mask="url(#mask-2)" points="34.2811803 23.6943344 35.477377 23.6943344 35.477377 18.6543344 34.2811803 18.6543344"></polygon>
                                <polygon id="Fill-16" fill="#A61127" mask="url(#mask-2)" points="24.4481311 23.7044328 25.6039344 23.7044328 25.6039344 20.9301377 24.4481311 20.9301377"></polygon>
                                <polygon id="Fill-17" fill="#A61127" mask="url(#mask-2)" points="12.1731148 11.6547016 13.3371803 11.6547016 13.3371803 16.0970623 17.8135082 16.0970623 17.8135082 17.2868328 12.1731148 17.2868328"></polygon>
                            </g>
                        </g>
                    </g>
                </g>
            </g>
        </g>
    </g>
</svg>