<?xml version="1.0" encoding="UTF-8"?>
<svg width="26px" height="25px" viewBox="0 0 26 25" version="1.1" xmlns="http://www.w3.org/2000/svg" xmlns:xlink="http://www.w3.org/1999/xlink">
    <!-- Generator: Sketch 61.2 (89653) - https://sketch.com -->
    <title>Group 6</title>
    <desc>Created with Sketch.</desc>
    <defs>
        <polygon id="path-1" points="0 0.379511459 25.6115385 0.379511459 25.6115385 22.3076923 0 22.3076923"></polygon>
    </defs>
    <g id="Page-1" stroke="none" stroke-width="1" fill="none" fill-rule="evenodd">
        <g id="03-after-login-order-pending" transform="translate(-1303.000000, -37.000000)">
            <g id="Group-6" transform="translate(1303.000000, 37.000000)">
                <g id="Group-3" transform="translate(0.000000, 2.550115)">
                    <mask id="mask-2" fill="white">
                        <use xlink:href="#path-1"></use>
                    </mask>
                    <g id="Clip-2"></g>
                    <path d="M12.7531923,22.3077964 C8.7505,22.2203077 5.42973077,20.6745385 2.86588462,17.5883846 C1.46780769,15.9056923 0.538576923,13.968 0.189730769,11.8014615 C-0.467961538,7.71607692 0.588576923,4.09569231 3.28473077,0.958769231 C3.68242308,0.496461538 4.34011538,0.454538462 4.80165385,0.828769231 C5.27626923,1.21415385 5.33396154,1.83915385 4.93780769,2.36530769 C4.59896154,2.81453846 4.22973077,3.24338462 3.91742308,3.70992308 C2.60819231,5.66723077 2.05665385,7.84223077 2.19934615,10.1791538 C2.36396154,12.8745385 3.43396154,15.1772308 5.34934615,17.0833846 C6.9455,18.6718462 8.86780769,19.6572308 11.0797308,20.0033846 C13.9212692,20.4476154 16.5562692,19.8514615 18.9155,18.1764615 C21.2455,16.5226154 22.6897308,14.2768462 23.2047308,11.4718462 C23.8347308,8.03838462 22.9347308,5.008 20.6531923,2.38069231 C20.3670385,2.05146154 20.1393462,1.718 20.2408846,1.25146154 C20.3343462,0.819153846 20.5943462,0.535307692 21.0135769,0.424153846 C21.4270385,0.314153846 21.8005,0.404153846 22.1058846,0.730692308 C23.3901154,2.10453846 24.3566538,3.66684615 24.9378077,5.46107692 C25.4970385,7.18723077 25.7497308,8.95723077 25.5362692,10.7599231 C25.0331923,15.008 22.9385769,18.2656923 19.2997308,20.5095385 C17.3005,21.7426154 15.1074231,22.3195385 12.7531923,22.3077964" id="Fill-1" fill="#FFFFFF" mask="url(#mask-2)"></path>
                </g>
                <path d="M13.8153846,7.96096154 C13.8153846,10.2344231 13.8176923,12.5078846 13.8134615,14.7809615 C13.8123077,15.4367308 13.365,15.8832692 12.7230769,15.8959615 C12.1807692,15.9063462 11.7142308,15.4771154 11.6576923,14.9121154 C11.6484615,14.8205769 11.6488462,14.7282692 11.6488462,14.6355769 C11.6484615,10.1709615 11.6476923,5.70634615 11.6488462,1.24134615 C11.6492308,0.516346154 12.0842308,0.0178846154 12.7226923,0.000576923077 C13.3057692,-0.0155769231 13.7984615,0.430961538 13.8084615,1.01826923 C13.8230769,1.87826923 13.815,2.73865385 13.8153846,3.59865385 C13.8157692,5.0525 13.8153846,6.50711538 13.8153846,7.96096154" id="Fill-4" fill="#FFFFFF"></path>
            </g>
        </g>
    </g>
</svg>