<?xml version="1.0" encoding="UTF-8"?>
<svg width="90px" height="91px" viewBox="0 0 90 91" version="1.1" xmlns="http://www.w3.org/2000/svg" xmlns:xlink="http://www.w3.org/1999/xlink">
    <!-- Generator: Sketch 61.2 (89653) - https://sketch.com -->
    <title>produktions-plan</title>
    <desc>Created with Sketch.</desc>
    <g id="Page-1" stroke="none" stroke-width="1" fill="none" fill-rule="evenodd">
        <g id="01-homepage" transform="translate(-1245.000000, -239.000000)">
            <g id="tiles-copy-10" transform="translate(1199.000000, 221.000000)">
                <g id="action-items-copy">
                    <g id="produktions-plan" transform="translate(46.000000, 18.000000)">
                        <g id="Group-3" transform="translate(0.000000, 0.503403)">
                            <circle id="Oval" fill="#FFEEDD" cx="45" cy="45" r="45"></circle>
                            <g id="Group-20" transform="translate(18.000000, 19.000000)">
                                <path d="M1.73590011,16.4900714 L6.36219146,16.4900714 C6.76996145,16.4900714 7.12262738,16.2065917 7.20956933,15.8080057 C7.4942736,14.5081623 8.00980263,13.2695457 8.73044118,12.1503211 C8.95024513,11.8080637 8.90126375,11.3568228 8.61288587,11.0690572 L5.33786835,7.79342738 L7.79306002,5.33762344 L11.0674653,8.61325323 C11.3558432,8.90163111 11.8070841,8.95122475 12.150566,8.73019628 C13.2697906,8.01016999 14.5084072,7.49525323 15.8082506,7.20993669 C16.2062243,7.12238248 16.4903163,6.76971654 16.4903163,6.36194655 L16.4903163,1.7356552 L19.9618716,1.7356552 L19.9618716,6.36194655 C19.9618716,6.76971654 20.2459636,7.12238248 20.6439373,7.20993669 C21.9437807,7.49525323 23.1823974,8.01016999 24.3010096,8.73019628 C24.6451038,8.95122475 25.0957325,8.90163111 25.3847227,8.61325323 L28.6591279,5.33762344 L31.1137073,7.79342738 L27.8393021,11.0678326 C27.5503119,11.3562105 27.5013306,11.8074515 27.7217468,12.1503211 C28.4423853,13.2701579 28.9566898,14.5087746 29.2413941,15.808618 C29.3289483,16.2072039 29.6816142,16.4912959 30.0893842,16.4912959 L34.7162878,16.4912959 L34.7162878,19.9628513 L30.0893842,19.9628513 C29.6816142,19.9628513 29.3289483,20.2469433 29.2413941,20.644917 C28.9566898,21.9447604 28.4423853,23.183377 27.7217468,24.301377 C27.5019428,24.6448589 27.5509242,25.0954876 27.8393021,25.3838655 L31.1143196,28.6582708 L28.6591279,31.114687 L25.3847227,27.8390572 C25.0957325,27.550067 24.6451038,27.5010857 24.3010096,27.7221141 C23.1830096,28.4421404 21.9450053,28.9570572 20.6451619,29.2423737 C20.2459636,29.3293157 19.9618716,29.6825939 19.9618716,30.0903639 L19.9618716,34.7166552 L16.4903163,34.7166552 L16.4903163,30.0903639 C16.4903163,29.6825939 16.205612,29.3293157 15.8070261,29.2423737 C14.5071827,28.9570572 13.2691783,28.4421404 12.150566,27.7221141 C11.8070841,27.5010857 11.3558432,27.550067 11.0674653,27.8390572 L7.79306002,31.114687 L5.33848061,28.658883 L8.61288587,25.3844778 C8.90248828,25.0960999 8.95085739,24.6448589 8.73044118,24.301377 C8.00980263,23.1821525 7.4942736,21.9435358 7.20956933,20.6430802 C7.12201512,20.2451065 6.76996145,19.9616267 6.36219146,19.9616267 L1.73590011,19.9616267 L1.73590011,16.4900714 Z M0.868317415,21.6974044 L5.68257481,21.6974044 C5.96789135,22.7247888 6.37811041,23.7123759 6.90527251,24.6387363 L3.49739299,28.044779 C3.3345299,28.2076421 3.24330208,28.4280583 3.24330208,28.658883 C3.24330208,28.8890955 3.3345299,29.110124 3.49739299,29.2729871 L7.17956824,32.9557746 C7.51815203,33.2937461 8.06735575,33.2937461 8.40655181,32.9557746 L11.8144313,29.5466705 C12.7407917,30.0744449 13.7271542,30.484664 14.7545387,30.7693682 L14.7545387,35.5842379 C14.7545387,36.0636432 15.1427161,36.4524329 15.6221214,36.4524329 L20.8300666,36.4524329 C21.3088596,36.4524329 21.6976493,36.0636432 21.6976493,35.5842379 L21.6976493,30.7693682 C22.7244215,30.484664 23.7113963,30.0744449 24.6371444,29.5466705 L28.0456361,32.9557746 C28.3903426,33.2815008 28.9291378,33.2815008 29.273232,32.9557746 L32.9554072,29.2729871 C33.1182703,29.110124 33.2094981,28.8890955 33.2094981,28.658883 C33.2094981,28.4280583 33.1182703,28.2076421 32.9554072,28.044779 L29.5469154,24.6387363 C30.0740775,23.7123759 30.4849089,22.7247888 30.7690009,21.6974044 L35.5844828,21.6974044 C36.0632758,21.6974044 36.4520655,21.3092269 36.4520655,20.8298217 L36.4520655,15.6224887 C36.4520655,15.1430835 36.0632758,14.7542938 35.5844828,14.7542938 L30.7690009,14.7542938 C30.4849089,13.7275216 30.0740775,12.7399345 29.5469154,11.8135742 L32.954795,8.40753143 C33.1170458,8.24466835 33.2088859,8.02425214 33.2088859,7.79342738 C33.2088859,7.5632149 33.1170458,7.34279869 32.954795,7.17932333 L29.273232,3.49653582 C28.9340359,3.15795203 28.3842199,3.15795203 28.0456361,3.49653582 L24.6371444,6.90563987 C23.7113963,6.37847777 22.7244215,5.96764644 21.6976493,5.68355444 L21.6976493,0.867460241 C21.6976493,0.388667251 21.3088596,-0.00012245345 20.8300666,-0.00012245345 L15.6221214,-0.00012245345 C15.1427161,-0.00012245345 14.7545387,0.388667251 14.7545387,0.867460241 L14.7545387,5.68355444 C13.7277665,5.96764644 12.7407917,6.37847777 11.8144313,6.90563987 L8.40655181,3.49653582 C8.06245761,3.17142191 7.52366243,3.17142191 7.17956824,3.49653582 L3.49678072,7.17932333 C3.33391763,7.34279869 3.24207755,7.5632149 3.24207755,7.79342738 C3.24207755,8.02425214 3.33391763,8.24466835 3.49678072,8.40753143 L6.90527251,11.8135742 C6.37811041,12.7399345 5.96789135,13.7275216 5.68257481,14.7542938 L0.868317415,14.7542938 C0.38829989,14.7542938 0.00012245345,15.1430835 0.00012245345,15.6224887 L0.00012245345,20.8298217 C0.00012245345,21.3092269 0.38829989,21.6974044 0.868317415,21.6974044 L0.868317415,21.6974044 Z" id="Fill-1" fill="#3D3D3D"></path>
                                <path d="M18.2261552,13.0185773 C21.1013622,13.0185773 23.4334882,15.3507033 23.4334882,18.2259103 C23.4334882,21.1017296 21.1013622,23.4338555 18.2261552,23.4338555 C15.3503359,23.4338555 13.0188222,21.1017296 13.0188222,18.2259103 C13.0218836,15.3513156 15.3509482,13.0216387 18.2261552,13.0185773 M18.2261552,25.1696332 C22.060785,25.1696332 25.1692658,22.0611524 25.1692658,18.2259103 C25.1692658,14.3912805 22.060785,11.2827997 18.2261552,11.2827997 C14.3915254,11.2827997 11.2830446,14.3912805 11.2830446,18.2259103 C11.2867182,22.0587033 14.3933622,25.1653473 18.2261552,25.1696332" id="Fill-3" fill="#3D3D3D"></path>
                                <path d="M18.2261552,10.4146659 C22.5401903,10.4146659 26.0368485,13.9119365 26.0368485,18.2259715 C26.0368485,22.5406188 22.5401903,26.0372771 18.2261552,26.0372771 C13.9121202,26.0372771 10.4148496,22.5406188 10.4148496,18.2259715 C10.4197478,13.9143855 13.913957,10.4195641 18.2261552,10.4146659 M18.2261552,27.7730548 C23.4983885,27.7730548 27.7732384,23.4988171 27.7732384,18.2259715 C27.7732384,12.953126 23.4983885,8.67888828 18.2261552,8.67888828 C12.9533096,8.67888828 8.67907196,12.953126 8.67907196,18.2259715 C8.68519463,23.4957558 12.9557587,27.7669321 18.2261552,27.7730548" id="Fill-5" fill="#3D3D3D"></path>
                                <g id="Group-9" transform="translate(0.000000, 24.011040)" fill="#A61127">
                                    <path d="M52.0742481,21.9880476 C52.0742481,23.4262634 50.9084912,24.591408 49.4708877,24.591408 L4.33944414,24.591408 C2.90184064,24.591408 1.73608379,23.4262634 1.73608379,21.9880476 L1.73608379,20.25227 C1.73608379,18.8140542 2.90184064,17.6482974 4.33944414,17.6482974 L49.4708877,17.6482974 C50.9084912,17.6482974 52.0742481,18.8140542 52.0742481,20.25227 L52.0742481,21.9880476 Z M33.8482766,15.9125197 L39.9238045,15.9125197 L39.9238045,9.83699179 L33.8482766,9.83699179 L33.8482766,15.9125197 Z M39.0556095,8.10121413 L45.1311375,8.10121413 L45.1311375,2.0256862 L39.0556095,2.0256862 L39.0556095,8.10121413 Z M41.6595821,15.9125197 L47.7351101,15.9125197 L47.7351101,9.83699179 L41.6595821,9.83699179 L41.6595821,15.9125197 Z M49.4708877,15.9125197 L49.4708877,8.96940909 C49.4708877,8.49000383 49.082098,8.10121413 48.6026928,8.10121413 L46.8669151,8.10121413 L46.8669151,1.1581035 C46.8669151,0.678698248 46.4781254,0.290520811 45.9993324,0.290520811 L38.1880268,0.290520811 C37.7086216,0.290520811 37.3198319,0.678698248 37.3198319,1.1581035 L37.3198319,8.10121413 L32.9800816,8.10121413 C32.5012886,8.10121413 32.1124989,8.49000383 32.1124989,8.96940909 L32.1124989,15.9125197 L4.33944414,15.9125197 C1.94425465,15.9155811 0.00336746988,17.8564682 0.000306133625,20.25227 L0.000306133625,21.9880476 C0.00336746988,24.3838494 1.94425465,26.3247366 4.33944414,26.3277979 L49.4708877,26.3277979 C51.8660772,26.3247366 53.8069644,24.3838494 53.8100257,21.9880476 L53.8100257,20.25227 C53.8069644,17.8564682 51.8660772,15.9155811 49.4708877,15.9125197 L49.4708877,15.9125197 Z" id="Fill-7"></path>
                                </g>
                                <path d="M26.0370322,45.1308926 C26.0370322,44.6520996 26.4258219,44.2633099 26.9052272,44.2633099 C27.3846324,44.2633099 27.7728099,44.6520996 27.7728099,45.1308926 C27.7728099,45.6102978 27.3846324,45.9990875 26.9052272,45.9990875 C26.4258219,45.9990875 26.0370322,45.6102978 26.0370322,45.1308926 Z M24.3012545,45.1308926 C24.3012545,46.5697206 25.4670114,47.7348652 26.9052272,47.7348652 C28.3428307,47.7348652 29.5085875,46.5697206 29.5085875,45.1308926 C29.5085875,43.693289 28.3428307,42.5275322 26.9052272,42.5275322 C25.4670114,42.5275322 24.3012545,43.693289 24.3012545,45.1308926 Z" id="Fill-10" fill="#A61127"></path>
                                <path d="M17.3585725,45.1308926 C17.3585725,44.6520996 17.7467499,44.2633099 18.2261552,44.2633099 C18.7055605,44.2633099 19.0937379,44.6520996 19.0937379,45.1308926 C19.0937379,45.6102978 18.7055605,45.9990875 18.2261552,45.9990875 C17.7467499,45.9990875 17.3585725,45.6102978 17.3585725,45.1308926 Z M15.6221826,45.1308926 C15.6221826,46.5697206 16.7879394,47.7348652 18.2261552,47.7348652 C19.6637587,47.7348652 20.8295156,46.5697206 20.8295156,45.1308926 C20.8295156,43.693289 19.6637587,42.5275322 18.2261552,42.5275322 C16.7879394,42.5275322 15.6221826,43.693289 15.6221826,45.1308926 Z" id="Fill-12" fill="#A61127"></path>
                                <path d="M34.7161042,45.1308926 C34.7161042,44.6520996 35.1048939,44.2633099 35.5842991,44.2633099 C36.0637044,44.2633099 36.4518818,44.6520996 36.4518818,45.1308926 C36.4518818,45.6102978 36.0637044,45.9990875 35.5842991,45.9990875 C35.1048939,45.9990875 34.7161042,45.6102978 34.7161042,45.1308926 Z M32.9803265,45.1308926 C32.9803265,46.5697206 34.1460834,47.7348652 35.5842991,47.7348652 C37.0219026,47.7348652 38.1876595,46.5697206 38.1876595,45.1308926 C38.1876595,43.693289 37.0219026,42.5275322 35.5842991,42.5275322 C34.1460834,42.5275322 32.9803265,43.693289 32.9803265,45.1308926 Z" id="Fill-14" fill="#A61127"></path>
                                <path d="M8.67950055,45.1308926 C8.67950055,44.6520996 9.06767798,44.2633099 9.54708324,44.2633099 C10.0264885,44.2633099 10.4146659,44.6520996 10.4146659,45.1308926 C10.4146659,45.6102978 10.0264885,45.9990875 9.54708324,45.9990875 C9.06767798,45.9990875 8.67950055,45.6102978 8.67950055,45.1308926 Z M6.94311062,45.1308926 C6.94311062,46.5697206 8.10886747,47.7348652 9.54708324,47.7348652 C10.9846867,47.7348652 12.1504436,46.5697206 12.1504436,45.1308926 C12.1504436,43.693289 10.9846867,42.5275322 9.54708324,42.5275322 C8.10886747,42.5275322 6.94311062,43.693289 6.94311062,45.1308926 Z" id="Fill-16" fill="#A61127"></path>
                                <path d="M43.3951149,45.1308926 C43.3951149,44.6520996 43.7839046,44.2633099 44.2633099,44.2633099 C44.7427151,44.2633099 45.1308926,44.6520996 45.1308926,45.1308926 C45.1308926,45.6102978 44.7427151,45.9990875 44.2633099,45.9990875 C43.7839046,45.9990875 43.3951149,45.6102978 43.3951149,45.1308926 Z M41.6593372,45.1308926 C41.6593372,46.5697206 42.8250941,47.7348652 44.2633099,47.7348652 C45.7009134,47.7348652 46.8666702,46.5697206 46.8666702,45.1308926 C46.8666702,43.693289 45.7009134,42.5275322 44.2633099,42.5275322 C42.8250941,42.5275322 41.6593372,43.693289 41.6593372,45.1308926 Z" id="Fill-18" fill="#A61127"></path>
                            </g>
                        </g>
                    </g>
                </g>
            </g>
        </g>
    </g>
</svg>