<?xml version="1.0" encoding="UTF-8"?>
<svg width="90px" height="91px" viewBox="0 0 90 91" version="1.1" xmlns="http://www.w3.org/2000/svg" xmlns:xlink="http://www.w3.org/1999/xlink">
    <!-- Generator: Sketch 61.2 (89653) - https://sketch.com -->
    <title>reinigung</title>
    <desc>Created with Sketch.</desc>
    <defs>
        <polygon id="path-1" points="0.333596265 0.161428571 47.0905806 0.161428571 47.0905806 46.9035926 0.333596265 46.9035926"></polygon>
    </defs>
    <g id="Page-1" stroke="none" stroke-width="1" fill="none" fill-rule="evenodd">
        <g id="01-homepage" transform="translate(-523.000000, -239.000000)">
            <g id="tiles-copy-2" transform="translate(477.000000, 221.000000)">
                <g id="action-items-copy">
                    <g id="reinigung" transform="translate(46.000000, 18.000000)">
                        <g id="Group-3" transform="translate(0.000000, 0.503403)">
                            <circle id="Oval" fill="#FFEEDD" cx="45" cy="45" r="45"></circle>
                            <g id="Group-16" transform="translate(20.000000, 20.000000)">
                                <g id="Group-3" transform="translate(2.142857, 0.553071)">
                                    <mask id="mask-2" fill="white">
                                        <use xlink:href="#path-1"></use>
                                    </mask>
                                    <g id="Clip-2"></g>
                                    <path d="M19.9218571,25.6483571 C19.8311429,25.7697857 19.7347143,25.9383571 19.6018571,26.0712143 C14.3632857,31.3176429 9.124,36.5640714 3.87257143,41.7990714 C3.44542857,42.2255 3.089,42.6447857 3.044,43.2790714 C3.01757143,43.6476429 2.91614286,44.0105 2.839,44.4297857 C3.45542857,44.3026429 3.98685714,44.2119286 4.50685714,44.0769286 C4.70757143,44.0255 4.91828571,43.9119286 5.06328571,43.7655 C10.4675714,38.3519286 15.864,32.9312143 21.2618571,27.5105 C21.3611429,27.4097857 21.4518571,27.3005 21.5104286,27.2355 C20.9875714,26.7133571 20.494,26.2197857 19.9218571,25.6483571 M27.8747143,24.1626429 C28.159,23.8433571 28.3561429,23.5862143 28.589,23.3662143 C29.5575714,22.4519286 30.6911429,22.1083571 31.9825714,22.5062143 C32.3032857,22.6047857 32.4697143,22.5490714 32.6918571,22.3262143 C36.4804286,18.5283571 40.2682857,14.7312143 44.0797143,10.9569286 C44.7868571,10.2576429 44.9318571,9.46192857 44.7868571,8.54907143 C44.6054286,7.40335714 44.0511429,6.42764286 43.3675714,5.51907143 C42.2682857,4.05835714 40.8575714,3.02621429 39.0854286,2.54335714 C38.1532857,2.28907143 37.2211429,2.26478571 36.4611429,3.02335714 C32.5932857,6.88621429 28.7311429,10.7540714 24.8582857,14.6126429 C24.6647143,14.8055 24.6225714,14.9612143 24.7118571,15.2155 C25.0347143,16.1312143 25.0447143,17.0955 24.474,17.8647857 C23.809,18.7597857 22.9825714,19.5447857 22.1682857,20.3162143 C21.8004286,20.6640714 21.2625714,20.5426429 20.8175714,20.1347857 C20.5704286,19.9083571 20.3618571,19.6397857 20.134,19.3883571 C19.5904286,19.9547857 19.0975714,20.4676429 18.6725714,20.9097857 C21.2168571,23.4605 23.7954286,26.0469286 26.4054286,28.6626429 C26.8504286,28.1805 27.3354286,27.6555 27.7561429,27.1990714 C27.0525714,26.4547857 26.3225714,25.6762143 25.5861429,24.9040714 C25.1054286,24.3990714 25.0647143,23.7433571 25.4961429,23.2990714 C25.9325714,22.8505 26.6097143,22.8540714 27.1097143,23.3276429 C27.3532857,23.5583571 27.5654286,23.8219286 27.8747143,24.1626429 M29.3318571,25.5276429 C30.1168571,26.4919286 30.254,27.4112143 29.669,28.3576429 C29.4418571,28.7262143 29.1047143,29.0276429 28.8111429,29.3547857 C28.5961429,29.5947857 28.3661429,29.8219286 28.1525714,30.0633571 C27.1825714,31.1569286 25.664,31.2297857 24.6132857,30.2140714 C24.1297143,29.7455 23.6697143,29.2519286 23.1232857,28.6919286 C22.9068571,28.9405 22.7297143,29.1697857 22.5261429,29.3733571 C17.124,34.7876429 11.7132857,40.1955 6.32114286,45.6205 C5.78114286,46.1633571 5.10471429,46.2105 4.444,46.3526429 C3.58614286,46.5376429 2.719,46.6776429 1.86257143,46.8655 C0.899714286,47.0762143 0.139714286,46.3876429 0.377571429,45.4197857 C0.656142857,44.2855 0.802571429,43.1197857 1.07042857,41.9826429 C1.15828571,41.6076429 1.379,41.2133571 1.65114286,40.9397857 C6.58328571,35.9862143 11.5318571,31.0490714 16.479,26.1105 C17.1404286,25.4497857 17.8111429,24.7983571 18.529,24.0919286 C18.0111429,23.5940714 17.5304286,23.1462143 17.0668571,22.6819286 C16.0804286,21.6919286 16.0747143,20.3669286 17.0497143,19.3576429 C17.4168571,18.9790714 17.8154286,18.6297857 18.1718571,18.2419286 C19.079,17.2547857 20.2647143,16.8512143 21.6768571,17.9219286 C21.8682857,17.7055 22.0647143,17.4719286 22.274,17.2519286 C22.824,16.6747857 22.8625714,16.2476429 22.4161429,15.5747857 C21.9147143,14.8205 21.9525714,14.4055 22.5975714,13.7605 C26.6804286,9.67764286 30.7654286,5.5955 34.8497143,1.51335714 C36.3054286,0.0590714286 38.0632857,-0.117357143 39.8968571,0.489071429 C43.279,1.60692857 45.6068571,3.88335714 46.7511429,7.26192857 C47.2575714,8.75621429 47.2618571,10.2955 46.319,11.6876429 C46.1154286,11.9876429 45.8632857,12.2612143 45.6061429,12.5197857 C41.5982857,16.5333571 37.5832857,20.5397857 33.5782857,24.5555 C32.944,25.1912143 32.3875714,25.3883571 31.589,24.7505 C31.159,24.4062143 30.6575714,24.4569286 30.2211429,24.8055 C30.1304286,24.8783571 30.0561429,24.9726429 29.9654286,25.0455 C29.7582857,25.2090714 29.5454286,25.3655 29.3318571,25.5276429" id="Fill-1" fill="#A61127" mask="url(#mask-2)"></path>
                                </g>
                                <path d="M8.58221429,3.17828571 C8.66578571,3.274 8.74435714,3.374 8.83364286,3.464 C10.3322143,4.98971429 11.8315,6.51471429 13.3322143,8.03828571 C13.9879286,8.70471429 14.0379286,8.95185714 13.6357857,9.78257143 C13.2022143,10.6768571 12.7836429,11.5804286 12.3007857,12.4482857 C12.1272143,12.7597143 11.8272143,13.0511429 11.5143571,13.2254286 C10.6079286,13.729 9.6665,14.1711429 8.73578571,14.6325714 C8.06364286,14.9661429 7.70864286,14.9068571 7.16435714,14.364 C5.65935714,12.864 4.15792857,11.3597143 2.65435714,9.85757143 C2.54221429,9.74542857 2.42507143,9.63828571 2.21435714,9.43614286 C2.21435714,9.72257143 2.20364286,9.89971429 2.21578571,10.0761429 C2.36078571,12.2425714 2.6365,14.3847143 3.43864286,16.4232857 C3.61435714,16.8704286 3.83364286,17.3032857 4.06435714,17.7261429 C4.68507143,18.8611429 5.63364286,19.5018571 6.94721429,19.4532857 C8.71578571,19.389 10.4836429,19.2897143 12.2486429,19.1675714 C12.8436429,19.1261429 13.4300714,18.969 14.0207857,18.8675714 C14.4829286,18.7882857 14.8907857,18.8804286 15.2186429,19.2411429 C15.5036429,19.554 15.8265,19.839 16.0779286,20.1761429 C16.4179286,20.6332857 16.3400714,21.1832857 15.9400714,21.5675714 C15.5665,21.9268571 14.9665,22.0204286 14.5872143,21.6297143 C14.0829286,21.1097143 13.5665,21.2268571 12.9600714,21.2968571 C11.3057857,21.489 9.64507143,21.6725714 7.98292857,21.7211429 C7.0015,21.7497143 5.97364286,21.6461429 5.03507143,21.3711429 C3.52292857,20.9275714 2.63864286,19.7018571 1.94078571,18.3632857 C1.05864286,16.6732857 0.620785714,14.8482857 0.3415,12.9718571 C0.0436428571,10.9654286 -0.0556428571,8.95328571 0.0293571429,6.93042857 C0.0629285714,6.12328571 0.523642857,5.58471429 1.1765,5.68471429 C1.52078571,5.73757143 1.89078571,5.95685714 2.14578571,6.20685714 C4.1015,8.12685714 6.03864286,10.0654286 7.96078571,12.0182857 C8.2615,12.324 8.50792857,12.4047143 8.84792857,12.1447143 C8.8815,12.119 8.92578571,12.1061429 8.96507143,12.0861429 C10.5579286,11.254 10.7143571,11.0918571 11.3379286,9.444 C11.3872143,9.314 11.2822143,9.059 11.1679286,8.94257143 C9.34364286,7.099 7.50578571,5.26971429 5.67364286,3.434 C5.4365,3.19614286 5.20935714,2.94757143 4.98364286,2.69828571 C4.67007143,2.35257143 4.66364286,1.95828571 4.83864286,1.55328571 C5.01864286,1.13614286 5.34935714,0.914 5.80435714,0.920292875 C7.32721429,0.941857143 8.85292857,0.916857143 10.3700714,1.01542857 C12.2707857,1.139 14.1407857,1.484 15.9372143,2.14757143 C17.4365,2.70114286 18.8600714,3.39828571 19.8172143,4.739 C20.1450714,5.19828571 20.3957857,5.76471429 20.5072143,6.31757143 C20.9286429,8.39042857 20.8557857,10.4761429 20.5393571,12.5625714 C20.3972143,13.499 20.3279286,14.4475714 20.2479286,15.3925714 C20.2029286,15.9211429 19.8293571,16.3311429 19.2686429,16.4018571 C18.7415,16.4682857 18.1229286,16.0382857 17.9922143,15.4725714 C17.9379286,15.2368571 17.9315,14.9725714 17.9757857,14.7347143 C18.3765,12.5847143 18.5322143,10.4175714 18.5715,8.23114286 C18.6015,6.534 17.8329286,5.429 16.3657857,4.71757143 C14.4707857,3.79828571 12.4450714,3.389 10.3643571,3.20042857 C9.78507143,3.14757143 9.20435714,3.10971429 8.62364286,3.06542857 C8.61007143,3.10328571 8.59578571,3.14042857 8.58221429,3.17828571" id="Fill-4" fill="#3D3D3D"></path>
                                <path d="M49.1106429,40.4052143 C49.1577857,44.1259286 46.5806429,47.8259286 42.6249286,49.2866429 C40.9549286,49.9030714 39.2385,49.9595 37.4877857,49.6709286 C34.9663571,49.2552143 32.9370714,48.0202143 31.3985,46.0123571 C29.6913571,43.7852143 28.9863571,41.2680714 29.4499286,38.4666429 C29.5185,38.0502143 29.6406429,37.6409286 29.6906429,37.2223571 C29.7106429,37.0495 29.6577857,36.8152143 29.5463571,36.6880714 C29.1906429,36.2809286 28.7835,35.9187857 28.4120714,35.5237857 C27.9677857,35.0509286 27.9577857,34.4209286 28.3663571,33.9809286 C28.7749286,33.5416429 29.4185,33.4902143 29.9049286,33.9345 C30.5963571,34.5659286 31.2513571,35.2387857 31.9063571,35.9095 C32.2449286,36.2566429 32.2070714,36.6802143 32.0535,37.1016429 C31.6806429,38.1280714 31.4320714,39.1802143 31.5106429,40.2795 C31.7299286,43.3352143 33.1777857,45.5795 35.9535,46.9323571 C37.1085,47.4952143 38.3506429,47.7837857 39.6113571,47.6795 C42.0327857,47.4787857 44.0485,46.4359286 45.4585,44.4023571 C47.8735,40.9202143 47.1670714,36.4245 43.8063571,33.8380714 C42.1992143,32.6016429 40.3656429,32.1080714 38.3585,32.3723571 C37.6277857,32.4687857 36.9042143,32.6759286 36.2020714,32.9080714 C35.6799286,33.0809286 35.2577857,33.0352143 34.8756429,32.6516429 C34.5035,32.2787857 34.1192143,31.9152143 33.7749286,31.5173571 C33.3999286,31.0837857 33.4392143,30.4252143 33.8185,30.0395 C34.1970714,29.6559286 34.8977857,29.5323571 35.2385,29.9759286 C35.9713571,30.9316429 36.7956429,30.3959286 37.5992143,30.2730714 C41.3227857,29.7059286 44.4213571,30.8545 46.8527857,33.7087857 C48.3877857,35.5102143 49.1306429,37.6359286 49.1106429,40.4052143" id="Fill-6" fill="#3D3D3D"></path>
                                <path d="M36.1903571,40.7072857 C36.2203571,40.7587143 36.2575,40.8658571 36.3289286,40.9387143 C36.9467857,41.5651429 37.5639286,42.1915714 38.1989286,42.8001429 C38.2896429,42.8872857 38.4896429,42.9322857 38.6146429,42.9008571 C39.4496429,42.6894286 40.2825,42.4651429 41.1060714,42.2122857 C41.2467857,42.1694286 41.4017857,41.9887143 41.4446429,41.8408571 C41.6825,41.0287143 41.9010714,40.2094286 42.0925,39.3844286 C42.1275,39.2372857 42.0553571,39.0087143 41.9496429,38.8958571 C41.3867857,38.2987143 40.8075,37.7158571 40.2096429,37.1544286 C40.0889286,37.0408571 39.8425,36.9615714 39.6867857,37.0001429 C38.8646429,37.2015714 38.0510714,37.4394286 37.2396429,37.6815714 C37.1203571,37.7172857 36.9639286,37.8237143 36.9346429,37.928 C36.6782143,38.8272857 36.4475,39.733 36.1903571,40.7072857 M33.8096429,41.1772857 C33.9903571,40.4544286 34.1560714,39.7751429 34.3296429,39.098 C34.5253571,38.3344286 34.7425,37.5765714 34.9232143,36.8101429 C35.0539286,36.2565714 35.3617857,35.9122857 35.9153571,35.7622857 C37.2246429,35.4072857 38.5325,35.0451429 39.8367857,34.6715714 C40.3817857,34.5158571 40.8189286,34.6165714 41.2282143,35.033 C42.1303571,35.9515714 43.0496429,36.8565714 43.9910714,37.7351429 C44.4996429,38.2087143 44.6482143,38.7094286 44.4546429,39.3837143 C44.0960714,40.6315714 43.7839286,41.8922857 43.4739286,43.153 C43.3460714,43.6722857 43.0696429,43.993 42.5410714,44.1344286 C41.1453571,44.508 39.7582143,44.908 38.3667857,45.2965714 C37.9960714,45.3994286 37.6560714,45.3087143 37.3903571,45.0522857 C36.2753571,43.9722857 35.1667857,42.8865714 34.0760714,41.7837143 C33.9282143,41.6344286 33.8925,41.3737143 33.8096429,41.1772857" id="Fill-8" fill="#3D3D3D"></path>
                                <path d="M42.8567857,11.4082857 C42.7232143,11.6568571 42.6382143,11.9532857 42.4475,12.1461429 C40.6660714,13.9497143 38.8703571,15.7397143 37.0689286,17.524 C36.5410714,18.0461429 35.8725,18.0711429 35.4289286,17.6268571 C34.9589286,17.1561429 34.9853571,16.509 35.5346429,15.9561429 C37.2903571,14.189 39.0546429,12.4297143 40.8189286,10.6704286 C41.1903571,10.3004286 41.6246429,10.1454286 42.1382143,10.3597143 C42.5396429,10.5275714 42.7832143,10.9125714 42.8567857,11.4082857" id="Fill-10" fill="#A61127"></path>
                                <path d="M33.3367143,14.8265714 C32.671,14.8258571 32.3045714,14.628 32.1124286,14.2065714 C31.9152857,13.7751429 31.9581429,13.3394286 32.3074286,12.9887143 C34.156,11.1315714 36.0074286,9.27728571 37.8674286,7.43085714 C38.2345714,7.06657143 38.8452857,7.05514286 39.2374286,7.35728571 C39.6881429,7.70585714 39.8195714,8.28157143 39.5474286,8.76514286 C39.4767143,8.89085714 39.3838571,9.008 39.2817143,9.11157143 C37.5424286,10.8701429 35.806,12.6337143 34.0502857,14.3765714 C33.8167143,14.608 33.4824286,14.7372857 33.3367143,14.8265714" id="Fill-12" fill="#A61127"></path>
                                <path d="M26.1042143,23.3770785 C25.5092143,23.3792143 25.0170714,22.8963571 25.0042143,22.2992143 C24.9927857,21.7142143 25.4935,21.1992143 26.0799286,21.1927857 C26.7013571,21.1870714 27.2006429,21.6806429 27.1963571,22.2970714 C27.1927857,22.8927857 26.7056429,23.3749286 26.1042143,23.3770785" id="Fill-14" fill="#A61127"></path>
                            </g>
                        </g>
                    </g>
                </g>
            </g>
        </g>
    </g>
</svg>