<?xml version="1.0" encoding="UTF-8"?>
<svg width="90px" height="91px" viewBox="0 0 90 91" version="1.1" xmlns="http://www.w3.org/2000/svg" xmlns:xlink="http://www.w3.org/1999/xlink">
    <!-- Generator: Sketch 61.2 (89653) - https://sketch.com -->
    <title>tagsbericht</title>
    <desc>Created with Sketch.</desc>
    <defs>
        <polygon id="path-1" points="0 0.17423913 40.3736457 0.17423913 40.3736457 54.0213629 0 54.0213629"></polygon>
    </defs>
    <g id="Page-1" stroke="none" stroke-width="1" fill="none" fill-rule="evenodd">
        <g id="01-homepage" transform="translate(-1034.000000, -239.000000)">
            <g id="tiles-copy-8" transform="translate(988.000000, 221.000000)">
                <g id="action-items-copy">
                    <g id="tagsbericht" transform="translate(46.000000, 18.000000)">
                        <g id="Group-3" transform="translate(0.000000, 0.503403)">
                            <circle id="Oval" fill="#FFEEDD" cx="45" cy="45" r="45"></circle>
                            <g id="Group-13" transform="translate(24.000000, 17.000000)">
                                <g id="Group-3" transform="translate(0.000000, 0.586859)">
                                    <mask id="mask-2" fill="white">
                                        <use xlink:href="#path-1"></use>
                                    </mask>
                                    <g id="Clip-2"></g>
                                    <path d="M34.4008152,52.1016848 C35.7871196,50.7663587 37.1399457,49.46375 38.4920109,48.1611413 L38.3984239,48.0629891 L34.4008152,48.0629891 L34.4008152,52.1016848 Z M1.19722826,1.34331522 L1.19722826,52.8321196 L33.2191848,52.8321196 L33.2191848,46.8440761 L39.144837,46.8440761 L39.144837,1.34331522 L1.19722826,1.34331522 Z M40.3667935,0.173858696 L40.3667935,0.695054348 C40.3667935,16.2616848 40.3652717,31.8275543 40.3736457,47.3941848 C40.3744022,47.7289674 40.27625,47.9572283 40.0396196,48.1915761 C38.1922283,50.0214674 36.3554891,51.8620109 34.5233152,53.7078804 C34.3133152,53.920163 34.104837,54.0221196 33.795163,54.0213629 C22.6895109,54.01375 11.5838587,54.0145109 0.478206522,54.0145109 L-0.000380434783,54.0145109 L-0.000380434783,0.173858696 L40.3667935,0.173858696 Z" id="Fill-1" fill="#A61127" mask="url(#mask-2)"></path>
                                </g>
                                <path d="M30.0175978,13.180163 C28.5460761,14.9895109 27.0798804,16.7950543 25.6190109,18.5929891 C26.7884674,20.3764674 26.7215109,21.6874457 25.4265109,22.729837 C24.3970543,23.5599457 22.8250978,23.4214674 21.8740109,22.4186413 C20.8567283,21.3458152 20.934337,19.9130978 22.0999891,18.57625 C20.7616196,16.8095109 19.4209674,15.0382065 18.0574891,13.2372283 C17.0189022,13.8672283 15.9886848,13.8345109 14.94325,13.174837 C13.4717283,14.9765761 11.9979239,16.7805978 10.521837,18.5884239 C10.7158587,18.867663 10.9250978,19.1240761 11.0864022,19.4086413 C11.6920543,20.477663 11.396837,21.8692935 10.4084674,22.6834239 C9.46346739,23.4610326 8.01172826,23.4549457 7.08498913,22.6849457 C6.23433696,21.9765761 5.91857609,21.0658152 6.15901087,20.01125 C6.3956413,18.9665761 7.08270652,18.2871196 8.13498913,18.03375 C8.42716304,17.96375 8.74977174,17.9416848 9.04422826,17.987337 C9.38129348,18.039837 9.5608587,17.9234239 9.76325,17.6715761 C11.1472717,15.9459239 12.5472717,14.2332065 13.9495543,12.5227717 C14.1009674,12.3386413 14.1428152,12.1910326 14.0560761,11.9528804 C13.6223804,10.7628804 14.0324891,9.51201087 15.0573804,8.82038043 C16.04575,8.15309783 17.3879239,8.24668478 18.32075,9.04788043 C19.1303152,9.74407609 19.4262935,11.0352717 18.9773804,12.0449457 C18.8754239,12.2747283 18.8929239,12.4154891 19.0405326,12.6072283 C20.3416196,14.294837 21.6381413,15.9870109 22.9202065,17.689837 C23.1050978,17.9355978 23.2884674,18.0466848 23.5852065,17.9721196 C23.6612935,17.952337 23.7525978,17.9340761 23.8225978,17.9569022 C24.451837,18.1600543 24.7660761,17.777337 25.1122717,17.3421196 C26.4133587,15.7039674 27.7403152,14.0863587 29.0680326,12.4702717 C29.2080326,12.3005978 29.2186848,12.1765761 29.1425978,11.9772283 C28.7385761,10.9241848 28.9630326,9.95103261 29.724663,9.17494565 C30.5281413,8.35701087 31.5439022,8.14092391 32.6304239,8.58298913 C33.6728152,9.00755435 34.2153152,9.84222826 34.269337,10.9363587 C34.3165109,11.9011413 33.9086848,12.7167935 33.0823804,13.2440761 C32.2134674,13.79875 31.2867283,13.8550543 30.3523804,13.3703804 C30.2937935,13.3399457 30.2405326,13.2996196 30.1827065,13.2661413 C30.1370543,13.2402717 30.0906413,13.2174457 30.0175978,13.180163" id="Fill-4" fill="#A61127"></path>
                                <polygon id="Fill-6" fill="#3D3D3D" points="16.7208696 35.730663 34.2672826 35.730663 34.2672826 34.6220761 16.7208696 34.6220761"></polygon>
                                <polygon id="Fill-8" fill="#3D3D3D" points="16.7117391 41.8046848 34.2596739 41.8046848 34.2596739 40.6747935 16.7117391 40.6747935"></polygon>
                                <polygon id="Fill-9" fill="#3D3D3D" points="16.7109783 44.7637065 34.2619565 44.7637065 34.2619565 43.6307717 16.7109783 43.6307717"></polygon>
                                <polygon id="Fill-10" fill="#3D3D3D" points="16.7216304 32.77925 34.2657609 32.77925 34.2657609 31.6759891 16.7216304 31.6759891"></polygon>
                                <path d="M8.85743478,37.1725109 C7.91395652,36.2579457 7.01536957,35.3875109 6.07645652,34.4782717 C6.42417391,34.0940326 6.75895652,33.7234891 7.14395652,33.298163 C7.64080435,33.8619674 8.12243478,34.4082717 8.63373913,34.9880543 C10.0017826,33.3316413 11.2610217,31.8068587 12.5438478,30.2539239 C12.9372174,30.5955543 13.3047174,30.9158804 13.7140652,31.2727283 C12.0964565,33.2380543 10.4933043,35.1851196 8.85743478,37.1725109" id="Fill-11" fill="#3D3D3D"></path>
                                <path d="M12.5436196,39.2596522 C12.9400326,39.6028043 13.3098152,39.9238913 13.7153587,40.2746522 C12.09775,42.2460652 10.4907935,44.2053043 8.84503261,46.2117174 C7.95938043,45.2499783 7.09655435,44.312587 6.20329348,43.3424783 C6.43231522,43.0944348 6.77166304,42.7276957 7.16122826,42.305413 C7.66188043,42.8555217 8.14503261,43.3858478 8.67155435,43.9633478 C10.0061196,42.3419348 11.269163,40.8080217 12.5436196,39.2596522" id="Fill-12" fill="#3D3D3D"></path>
                            </g>
                        </g>
                    </g>
                </g>
            </g>
        </g>
    </g>
</svg>