<?xml version="1.0" encoding="UTF-8"?>
<svg width="27px" height="27px" viewBox="0 0 27 27" version="1.1" xmlns="http://www.w3.org/2000/svg" xmlns:xlink="http://www.w3.org/1999/xlink">
    <!-- Generator: Sketch 62 (91390) - https://sketch.com -->
    <title>Group 2</title>
    <desc>Created with Sketch.</desc>
    <g id="Page-1" stroke="none" stroke-width="1" fill="none" fill-rule="evenodd">
        <g id="07-after-login-bakery|tab-option" transform="translate(-502.000000, -567.000000)" fill="#B0B0B0" fill-rule="nonzero">
            <g id="Group-4" transform="translate(319.000000, 553.000000)">
                <g id="Group-8-Copy" transform="translate(171.000000, 0.000000)">
                    <g id="check-24px" transform="translate(12.000000, 14.000000)">
                        <g id="Group-2" transform="translate(0.500000, 0.500000)">
                            <g id="Oval-2">
                                <path d="M13,0 C5.82029825,0 0,5.82029825 0,13 C0,20.1797017 5.82029825,26 13,26 C20.1797017,26 26,20.1797017 26,13 C26,5.82029825 20.1797017,0 13,0 Z M13,1 C19.627417,1 25,6.372583 25,13 C25,19.627417 19.627417,25 13,25 C6.372583,25 1,19.627417 1,13 C1,6.372583 6.372583,1 13,1 Z" id="Oval"></path>
                            </g>
                            <polygon id="Path" points="9.5 17.67 5.33 13.5 3.91 14.91 9.5 20.5 21.5 8.5 20.09 7.09"></polygon>
                        </g>
                    </g>
                </g>
            </g>
        </g>
    </g>
</svg>