<?xml version="1.0" encoding="UTF-8"?>
<svg width="90px" height="91px" viewBox="0 0 90 91" version="1.1" xmlns="http://www.w3.org/2000/svg" xmlns:xlink="http://www.w3.org/1999/xlink">
    <!-- Generator: Sketch 61.2 (89653) - https://sketch.com -->
    <title>verpackung-abteilung</title>
    <desc>Created with Sketch.</desc>
    <g id="Page-1" stroke="none" stroke-width="1" fill="none" fill-rule="evenodd">
        <g id="01-homepage" transform="translate(-312.000000, -239.000000)">
            <g id="tiles-copy" transform="translate(266.000000, 221.000000)">
                <g id="action-items-copy">
                    <g id="verpackung-abteilung" transform="translate(46.000000, 18.000000)">
                        <g id="Group-3" transform="translate(0.000000, 0.503403)">
                            <circle id="Oval" fill="#FFEEDD" cx="45" cy="45" r="45"></circle>
                            <g id="Group-6" transform="translate(21.000000, 19.000000)">
                                <g id="Group-3" transform="translate(0.000000, 0.440717)" fill="#A61127" stroke="#A61127" stroke-width="0.5">
                                    <path d="M30.2252622,4.08176593 C27.9685511,3.17308444 25.7959289,2.29112889 23.6135289,1.4339437 C23.4381807,1.36484741 23.1780919,1.41047704 22.9910104,1.48544 C17.4052919,3.71412148 11.8241363,5.95323259 6.24232889,8.19169185 C4.89299556,8.73338074 3.54431407,9.27898074 2.13957333,9.84544 C4.71112889,10.8681956 7.21684741,11.8603141 9.71669926,12.8661215 C10.0354548,12.9945363 10.3020622,12.9925807 10.6208178,12.8491733 C14.5788622,11.0670104 18.5427733,9.29723259 22.5060326,7.52615111 C25.0567289,6.38671407 27.608077,5.24988444 30.2252622,4.08176593 L30.2252622,4.08176593 Z M44.5510104,9.84087704 C44.4317215,9.76982519 44.3821807,9.72941037 44.3254696,9.70659556 C41.424077,8.54564741 38.5233363,7.38078815 35.6154252,6.2361363 C35.422477,6.15986963 35.1395733,6.18072889 34.9433659,6.26286222 C28.321203,9.03518815 21.7042548,11.8205511 15.0873067,14.6052622 C14.9543289,14.6613215 14.8278696,14.7323733 14.6349215,14.8281956 C17.5350104,15.9871881 20.3470993,17.1148919 23.1650548,18.2262993 C23.3149807,18.2849659 23.5366104,18.2458548 23.6969659,18.1819733 C26.6172622,17.0236326 29.5336474,15.8555141 32.4506844,14.6880474 C36.4628326,13.0818844 40.4743289,11.4737659 44.5510104,9.84087704 L44.5510104,9.84087704 Z M9.69584,23.5004326 L9.69584,22.952877 C9.69584,20.1531733 9.69127704,17.3534696 9.70235852,14.5531141 C9.70366222,14.2252326 9.62739556,14.05184 9.29429926,13.9208178 C6.72795852,12.9091437 4.17204741,11.8713956 1.61287704,10.8427733 C1.47598815,10.7873659 1.3371437,10.7378252 1.17939556,10.6785067 C1.16831407,10.7984474 1.16049185,10.8460326 1.16049185,10.8936178 C1.15918815,20.5410252 1.1611437,30.1890844 1.15136349,39.8364919 C1.15071407,40.1402548 1.28108444,40.2386844 1.5281363,40.3371141 C8.46058074,43.0996622 15.3904178,45.8687289 22.3209067,48.6364919 C22.4590993,48.6918993 22.6031585,48.7336178 22.8039289,48.8020622 L22.8039289,48.2095289 L22.8039289,43.3141215 C22.8039289,35.50624 22.7993659,27.6983585 22.8150195,19.890477 C22.8163141,19.4459141 22.6781215,19.2575289 22.2707141,19.1017363 C20.6045807,18.4616178 18.9547437,17.7791289 17.2983881,17.11424 C16.3095289,16.7179141 15.3193659,16.3248474 14.2490252,15.8978844 L14.2490252,25.2024178 C12.6858844,24.6183585 11.1977067,24.061677 9.69584,23.5004326 L9.69584,23.5004326 Z M45.5659437,10.6961067 C45.3527881,10.7658548 45.2022104,10.8056178 45.0581511,10.8629807 C38.1615585,13.6242252 31.2656178,16.3893807 24.3651141,19.1414993 C24.009203,19.2829511 23.9107733,19.4628622 23.911422,19.8357215 C23.9231585,29.306477 23.9205511,38.7772326 23.9205511,48.2473363 L23.9205511,48.8040178 C24.1167585,48.7401363 24.2516919,48.7049363 24.3814104,48.6527881 C31.2806104,45.8980622 38.1791585,43.1387733 45.0822696,40.3925215 C45.4401363,40.2497659 45.5763733,40.0796326 45.5757238,39.6754844 C45.5626844,30.2053807 45.5659437,20.7346252 45.5659437,11.2645215 L45.5659437,10.6961067 Z M0.00671407407,25.1600474 C0.00671407407,20.198803 0.00606222222,15.2382104 0.00671407407,10.2769659 C0.00671407407,9.4947437 0.0582103704,9.41717333 0.760254815,9.13687704 C8.11444741,6.20028444 15.4692919,3.26629926 22.820877,0.32384 C23.2035141,0.170654815 23.5444326,0.175217778 23.9264178,0.327751111 C31.2832178,3.27281778 38.6439289,6.20875852 46.0033363,9.14730667 C46.6682252,9.41261037 46.7177659,9.48496593 46.7177659,10.2130844 C46.7184178,20.198803 46.7151585,30.1851733 46.7262416,40.1708919 C46.7268919,40.7347437 46.528077,41.0209067 45.9935585,41.2334104 C38.6152474,44.1680474 31.2454104,47.1235437 23.876877,50.083603 C23.524877,50.2250548 23.2217659,50.2309215 22.8684622,50.0888178 C15.4705956,47.1183289 8.07012148,44.1530548 0.663780741,41.2021215 C0.160551111,41.002003 -0.00110814815,40.6988919 0.000187744727,40.1871881 C0.0106251852,35.1783585 0.00671407407,30.168877 0.00671407407,25.1600474 L0.00671407407,25.1600474 Z" id="Fill-1"></path>
                                </g>
                                <path d="M9.24418763,24.2666667 L9.24418763,13.8666667 C9.23792593,13.4592593 9.4752,13.0870519 9.84675556,12.9208296 L30.2251319,4.52248296 L35.2828504,6.5608237 L15.0222222,16.1777778 C14.6474074,16.3387852 14.4049185,16.7077333 14.4055704,17.1151407 L15.0222222,26.5777778 L9.24418763,24.2666667 Z" id="Fill-4" fill="#3D3D3D"></path>
                            </g>
                        </g>
                    </g>
                </g>
            </g>
        </g>
    </g>
</svg>