<?xml version="1.0" encoding="UTF-8"?>
<svg width="90px" height="91px" viewBox="0 0 90 91" version="1.1" xmlns="http://www.w3.org/2000/svg" xmlns:xlink="http://www.w3.org/1999/xlink">
    <!-- Generator: Sketch 61.2 (89653) - https://sketch.com -->
    <title>admin</title>
    <desc>Created with Sketch.</desc>
    <defs>
        <polygon id="path-1" points="0 0.406809877 25.8811259 0.406809877 25.8811259 26.2880444 0 26.2880444"></polygon>
        <polygon id="path-3" points="0.356753086 0.0782222222 24.9253898 0.0782222222 24.9253898 48.345679 0.356753086 48.345679"></polygon>
    </defs>
    <g id="Page-1" stroke="none" stroke-width="1" fill="none" fill-rule="evenodd">
        <g id="01-homepage" transform="translate(-312.000000, -452.000000)">
            <g id="tiles-copy-4" transform="translate(266.000000, 434.000000)">
                <g id="action-items-copy">
                    <g id="admin" transform="translate(46.000000, 18.000000)">
                        <g id="Group-3" transform="translate(0.000000, 0.503403)">
                            <circle id="Oval" fill="#FFEEDD" cx="45" cy="45" r="45"></circle>
                            <g id="Group-11" transform="translate(18.000000, 21.000000)">
                                <g id="Group-3" transform="translate(0.000000, 11.329348)">
                                    <mask id="mask-2" fill="white">
                                        <use xlink:href="#path-1"></use>
                                    </mask>
                                    <g id="Clip-2"></g>
                                    <path d="M1.23243457,12.1151556 L4.51668148,12.1151556 C4.80675556,12.1151556 5.05717531,11.9136247 5.11910123,11.6306123 C5.32117531,10.708242 5.68675556,9.82878519 6.19845926,9.03406914 C6.3549037,8.7901679 6.32013827,8.47076049 6.11534815,8.26597037 L3.78986667,5.93994568 L5.53302716,4.19678519 L7.85796543,6.52226667 C8.06275556,6.7276 8.38324938,6.76236543 8.62715062,6.60592099 C9.42186667,6.09421728 10.3007802,5.72863704 11.224237,5.52601975 C11.5067062,5.46409383 11.708237,5.21313086 11.708237,4.92414321 L11.708237,1.63935309 L14.1733235,1.63935309 L14.1733235,4.92414321 C14.1733235,5.21313086 14.3748543,5.46409383 14.6573235,5.52601975 C15.580237,5.72863704 16.4596938,6.09421728 17.2544099,6.60592099 C17.4983111,6.76236543 17.8182617,6.7276 18.0235951,6.52226667 L20.3485333,4.19678519 L22.0911506,5.93994568 L19.7662123,8.26488395 C19.560879,8.47021728 19.5261136,8.7901679 19.682558,9.03406914 C20.1948049,9.82878519 20.559842,10.708242 20.761916,11.6311556 C20.823842,11.9141679 21.0742617,12.1156988 21.3637926,12.1156988 L24.6485827,12.1156988 L24.6485827,14.5807852 L21.3637926,14.5807852 C21.0742617,14.5807852 20.823842,14.782316 20.761916,15.0653284 C20.559842,15.9876988 20.1942617,16.8676988 19.682558,17.6613284 C19.5266568,17.9052296 19.5614222,18.2251802 19.7662123,18.4299704 L22.0916938,20.7549086 L20.3485333,22.4986123 L18.0235951,20.1731309 C17.8182617,19.9677975 17.4983111,19.9335753 17.2544099,20.0900198 C16.460237,20.6017235 15.5813235,20.9673037 14.6578667,21.1693778 C14.3748543,21.2307605 14.1733235,21.4817235 14.1733235,21.7712543 L14.1733235,25.0560444 L11.708237,25.0560444 L11.708237,21.7712543 C11.708237,21.4817235 11.506163,21.2307605 11.2231506,21.1693778 C10.300237,20.9673037 9.42132346,20.6017235 8.62715062,20.0900198 C8.38324938,19.9335753 8.06275556,19.9677975 7.85796543,20.1731309 L5.53302716,22.4986123 L3.78986667,20.7554519 L6.11534815,18.4299704 C6.32068148,18.2257235 6.3549037,17.9052296 6.19845926,17.6613284 C5.68675556,16.8666123 5.32117531,15.9871556 5.11910123,15.0636988 C5.05717531,14.7812296 4.80675556,14.580242 4.51668148,14.580242 L1.23243457,14.580242 L1.23243457,12.1151556 Z M0.616434568,15.8127852 L4.03485432,15.8127852 C4.2369284,16.5417728 4.52808889,17.2430568 4.9029037,17.9003407 L2.48344691,20.3192543 C2.36774321,20.4344148 2.30255802,20.5914025 2.30255802,20.7549086 C2.30255802,20.918958 2.36774321,21.0754025 2.48344691,21.1911062 L5.09737284,23.8055753 C5.33801481,24.0462173 5.72803951,24.0462173 5.96868148,23.8055753 L8.38868148,21.3855753 C9.04596543,21.7598469 9.74670617,22.0515506 10.4756938,22.2536247 L10.4756938,25.6720444 C10.4756938,26.0120938 10.7516444,26.2880444 11.0916938,26.2880444 L14.7893235,26.2880444 C15.1293728,26.2880444 15.4053235,26.0120938 15.4053235,25.6720444 L15.4053235,22.2536247 C16.1348543,22.0515506 16.8355951,21.7598469 17.492879,21.3855753 L19.912879,23.8055753 C20.1573235,24.0369827 20.5397432,24.0369827 20.7841877,23.8055753 L23.3986568,21.1911062 C23.5143605,21.0754025 23.5790025,20.918958 23.5790025,20.7549086 C23.5790025,20.5914025 23.5143605,20.4344148 23.3986568,20.3192543 L20.9786568,17.9003407 C21.3534716,17.2430568 21.6446321,16.5417728 21.8467062,15.8127852 L25.2651259,15.8127852 C25.6057185,15.8127852 25.8811259,15.5368346 25.8811259,15.196242 L25.8811259,11.4991556 C25.8811259,11.1591062 25.6057185,10.8826123 25.2651259,10.8826123 L21.8467062,10.8826123 C21.6446321,10.1541679 21.3534716,9.45234074 20.9786568,8.79505679 L23.3981136,6.37668642 C23.5138173,6.26098272 23.5790025,6.10399506 23.5790025,5.94048889 C23.5790025,5.77698272 23.5138173,5.61999506 23.3981136,5.50483457 L20.7841877,2.88982222 C20.5435457,2.64918025 20.153521,2.64918025 19.912879,2.88982222 L17.492879,5.30982222 C16.8355951,4.93555062 16.1343111,4.64439012 15.4053235,4.44231605 L15.4053235,1.02335309 C15.4053235,0.683303704 15.1293728,0.406809877 14.7893235,0.406809877 L11.0916938,0.406809877 C10.7516444,0.406809877 10.4756938,0.683303704 10.4756938,1.02335309 L10.4756938,4.44231605 C9.74670617,4.64439012 9.04596543,4.93555062 8.38868148,5.30982222 L5.96868148,2.88982222 C5.72423704,2.65841481 5.34127407,2.65841481 5.09737284,2.88982222 L2.4829037,5.50483457 C2.3672,5.61999506 2.30201481,5.77698272 2.30201481,5.94048889 C2.30201481,6.10399506 2.3672,6.26098272 2.4829037,6.37668642 L4.9029037,8.79505679 C4.52808889,9.45234074 4.2369284,10.1541679 4.03485432,10.8826123 L0.616434568,10.8826123 C0.275841975,10.8826123 -0.000108641975,11.1591062 -0.000108641975,11.4991556 L-0.000108641975,15.196242 C-0.000108641975,15.5368346 0.275841975,15.8127852 0.616434568,15.8127852 L0.616434568,15.8127852 Z" id="Fill-1" fill="#3D3D3D" mask="url(#mask-2)"></path>
                                </g>
                                <path d="M12.9406173,20.9796346 C14.9825432,20.9796346 16.6382469,22.6353383 16.6382469,24.6772642 C16.6382469,26.7186469 14.9825432,28.3743506 12.9406173,28.3743506 C10.8992346,28.3743506 9.24353086,26.7186469 9.24353086,24.6772642 C9.2457037,22.6358815 10.8992346,20.9818074 12.9406173,20.9796346 M12.9406173,29.6068938 C15.6631852,29.6068938 17.8702469,27.3998321 17.8702469,24.6772642 C17.8702469,21.9541531 15.6631852,19.7470914 12.9406173,19.7470914 C10.2180494,19.7470914 8.01098765,21.9541531 8.01098765,24.6772642 C8.0137037,27.3982025 10.219679,29.6036346 12.9406173,29.6068938" id="Fill-4" fill="#3D3D3D"></path>
                                <path d="M12.9406173,19.1309284 C16.0037778,19.1309284 18.4867901,21.6139407 18.4867901,24.6771012 C18.4867901,27.7402617 16.0037778,30.2227309 12.9406173,30.2227309 C9.87745679,30.2227309 7.39498765,27.7402617 7.39498765,24.6771012 C7.3977037,21.6155704 9.87908642,19.1341877 12.9406173,19.1309284 M12.9406173,31.4552741 C16.6844198,31.4552741 19.7193333,28.4209037 19.7193333,24.6771012 C19.7193333,20.9332988 16.6844198,17.8983852 12.9406173,17.8983852 C9.19681481,17.8983852 6.16190123,20.9332988 6.16190123,24.6771012 C6.16679012,28.4187309 9.19898765,31.4509284 12.9406173,31.4552741" id="Fill-6" fill="#3D3D3D"></path>
                                <g id="Group-10" transform="translate(28.246914, 0.465151)">
                                    <mask id="mask-4" fill="white">
                                        <use xlink:href="#path-3"></use>
                                    </mask>
                                    <g id="Clip-9"></g>
                                    <path d="M15.498321,46.8296889 C17.7770864,46.8296889 20.0553086,46.8302321 22.3340741,46.8286025 C22.494321,46.8286025 22.6567407,46.8258864 22.8148148,46.8025284 C23.1744198,46.7503802 23.3922469,46.5151704 23.3927901,46.1479605 C23.397679,43.5845531 23.397679,41.0211457 23.3933333,38.4577383 C23.3927901,38.0698864 23.1771358,37.835763 22.7952593,37.7819852 C22.6491358,37.7613432 22.4992099,37.7608 22.3509136,37.7608 C19.7005926,37.7597136 17.0508148,37.7548247 14.4004938,37.7646025 C13.9463704,37.7662321 13.6253333,37.6125037 13.396642,37.2105284 C13.0908148,36.673837 12.7442469,36.1605037 12.4297284,35.6287012 C12.2195062,35.2739852 11.9283457,35.1115654 11.514963,35.1158262 C10.5246914,35.1262321 9.53387654,35.1186272 8.54306173,35.1191704 C7.82928395,35.1197136 7.62503704,35.3266765 7.62503704,36.0540346 C7.62449383,39.311121 7.62449383,42.5682074 7.62449383,45.8247506 C7.62503704,46.6471704 7.80483951,46.8291457 8.62562963,46.8296889 C10.9163457,46.8302321 13.2076049,46.8296889 15.498321,46.8296889 M15.4858272,13.3739358 C17.6287901,13.3739358 19.7717531,13.374479 21.914716,13.3739358 C22.1749136,13.3733926 22.4356543,13.3837136 22.6942222,13.361442 C23.154321,13.3212444 23.3933333,13.0670222 23.3938765,12.6123556 C23.397679,10.0853432 23.397679,7.55833086 23.3938765,5.03131852 C23.3933333,4.6065284 23.1733333,4.37349136 22.7474568,4.32351605 C22.6002469,4.30667654 22.4508642,4.30504691 22.3025679,4.30504691 C19.6891852,4.30396049 17.0752593,4.29472593 14.4618765,4.31210864 C13.9425679,4.3153679 13.5976296,4.13773827 13.3477531,3.68415802 C13.0614815,3.16539259 12.7198025,2.67759012 12.4242963,2.16317037 C12.1918025,1.75902222 11.8854321,1.56618272 11.4008889,1.58084938 C10.4600494,1.6090963 9.51812346,1.58899753 8.57674074,1.58899753 C7.83037037,1.58954074 7.62503704,1.7910716 7.62503704,2.52983704 C7.62449383,5.79996049 7.62449383,9.07008395 7.62449383,12.3402074 C7.62503704,13.1734914 7.82167901,13.3733926 8.64844444,13.3739358 C10.9272099,13.3750222 13.2065185,13.3739358 15.4858272,13.3739358 M15.5075556,30.0662321 C17.8232593,30.0662321 20.1395062,30.0667753 22.4557531,30.0656889 C23.1581235,30.0651457 23.3955062,29.8272198 23.3955062,29.1346272 C23.3960494,26.7445037 23.3960494,24.353837 23.3960494,21.9637136 C23.3960494,21.1912691 23.201037,20.9935407 22.4361975,20.9935407 C19.7364444,20.9929975 17.0366914,20.9886519 14.3363951,20.9984296 C13.9175802,21.0000593 13.6323951,20.8408988 13.4232593,20.4883556 C13.114716,19.9674173 12.773037,19.4649481 12.4780741,18.9364049 C12.2461235,18.5203062 11.9218272,18.3448494 11.4519506,18.3513679 C10.4736296,18.3654914 9.49530864,18.3535407 8.51644444,18.3562568 C7.84449383,18.3584296 7.62503704,18.5762568 7.62503704,19.2416889 C7.62395062,22.523763 7.62395062,25.805837 7.62503704,29.0884543 C7.62558025,29.8348247 7.85481481,30.0651457 8.5962963,30.0656889 C10.9000494,30.0667753 13.2038025,30.0662321 15.5075556,30.0662321 M0.431308642,23.4651457 L0.431308642,22.979516 C0.431308642,18.2709728 0.430222222,13.5624296 0.432395062,8.85388642 C0.432938272,7.55941728 1.13802469,6.6419358 2.30266667,6.45561481 C2.66553086,6.39803457 3.04360494,6.4273679 3.41516049,6.42519506 C4.27017284,6.42030617 5.12464198,6.42084938 5.97965432,6.41813333 C6.00301235,6.41813333 6.02582716,6.40563951 6.08883951,6.38717037 C6.09535802,6.27038025 6.10839506,6.14055309 6.10839506,6.01018272 C6.11002469,4.83304691 6.13609877,3.6553679 6.10350617,2.47877531 C6.05950617,0.911071605 7.28879012,0.0136888889 8.48059259,0.0815901235 C9.53007407,0.14134321 10.5860741,0.0984296296 11.639358,0.0929975309 C12.5199012,0.0886518519 13.1875062,0.45042963 13.6318519,1.21581235 C13.8800988,1.64331852 14.1489877,2.05996049 14.3798519,2.49670123 C14.5020741,2.72647901 14.6525432,2.79546667 14.9062222,2.79492346 C17.4337778,2.78568889 19.9618765,2.78894815 22.4894321,2.78949136 C23.9892346,2.79003457 24.9061728,3.67655309 24.9148642,5.1790716 C24.9284444,7.59526914 24.9295309,10.0114667 24.914321,12.4276642 C24.9045432,14.0154667 23.993037,14.8894914 22.398716,14.8894914 C17.7895802,14.8894914 13.1799012,14.8894914 8.57076543,14.8889481 C6.99219753,14.8889481 6.03614815,13.9280099 6.03560494,12.339121 C6.03451852,11.0506272 6.03506173,9.76213333 6.03506173,8.47363951 L6.03506173,8.02549136 C5.90469136,8.0113679 5.82103704,7.9950716 5.73738272,7.9950716 C4.7465679,7.99289877 3.75520988,7.98800988 2.76385185,7.99561481 C2.12666667,8.00104691 1.90014815,8.24005926 1.90014815,8.87670123 C1.90014815,13.5977383 1.90014815,18.3187753 1.90014815,23.0398123 L1.90014815,23.4618864 L6.10948148,23.4618864 C6.10948148,23.2989235 6.10893827,23.1435654 6.10948148,22.9887506 C6.11708642,21.6013926 6.08340741,20.2124049 6.14587654,18.8272198 C6.19639506,17.707121 7.14646914,16.8602568 8.26493827,16.8445037 C9.41708642,16.8287506 10.5697778,16.8227753 11.7213827,16.8472198 C12.526963,16.863516 13.1744691,17.2089975 13.5949136,17.9227753 C13.8648889,18.3807012 14.1468148,18.8321086 14.401037,19.2987259 C14.5178272,19.5122074 14.6579753,19.5795654 14.8991605,19.578479 C17.4392099,19.5692444 19.9798025,19.6056395 22.5193086,19.557837 C23.6882963,19.5361086 24.9121481,20.3096395 24.9132346,21.8257383 C24.9159506,24.4146765 24.9208395,27.004158 24.880642,29.5930963 C24.8632593,30.7229728 23.9061235,31.6274173 22.7767901,31.6301333 C17.9574321,31.6415407 13.1375309,31.6426272 8.31762963,31.6290469 C7.08345679,31.6257877 6.1985679,30.6322568 6.18661728,29.2937877 C6.17520988,28.0302815 6.18390123,26.7662321 6.18390123,25.5021827 L6.18390123,25.0247012 L1.9745679,25.0247012 L1.9745679,25.4364543 C1.9745679,30.1944296 1.9745679,34.9529481 1.9745679,39.7109235 C1.9745679,40.3356148 2.18967901,40.553442 2.8214321,40.556158 C3.89698765,40.5599605 4.97308642,40.5572444 6.08938272,40.5572444 C6.09644444,40.3883062 6.10839506,40.245442 6.10893827,40.103121 C6.11002469,38.7271704 6.13283951,37.351763 6.10350617,35.9768988 C6.07145679,34.4852444 7.23718519,33.547121 8.47407407,33.6123062 C9.5371358,33.6682568 10.6050864,33.6253432 11.670321,33.6237136 C12.537284,33.622084 13.1918519,33.9876642 13.6307654,34.7383802 C13.8741235,35.154479 14.1381235,35.5602568 14.3592099,35.987763 C14.4912099,36.2419852 14.6481975,36.3278123 14.936642,36.3267259 C17.4022716,36.3136889 19.8679012,36.319121 22.3335309,36.319121 C23.8023704,36.3196642 24.7241975,37.1198123 24.7502716,38.5908247 C24.795358,41.1417383 24.7801481,43.6948247 24.7318025,46.2462815 C24.707358,47.5043556 23.7404444,48.3425284 22.4568395,48.3436148 C18.9379259,48.3474173 15.4190123,48.3452444 11.9000988,48.3452444 C10.722963,48.3452444 9.54582716,48.3468741 8.36869136,48.3447012 C6.97264198,48.341442 6.03995062,47.4109235 6.03614815,46.0154173 C6.03234568,44.8263309 6.03506173,43.6367012 6.03506173,42.4470716 L6.03506173,41.9972938 L5.48479012,41.9972938 C4.58034568,41.9972938 3.67590123,42.0038123 2.77145679,41.9962074 C1.25101235,41.9831704 0.358518519,41.0781827 0.357432099,39.5533926 C0.356345679,36.505442 0.356753086,33.4574914 0.356753086,30.4089975 L0.356753086,25.4652444 L0.356753086,25.034479" id="Fill-8" fill="#A61127" mask="url(#mask-4)"></path>
                                </g>
                            </g>
                        </g>
                    </g>
                </g>
            </g>
        </g>
    </g>
</svg>