<?xml version="1.0" encoding="UTF-8"?>
<svg width="17px" height="19px" viewBox="0 0 17 19" version="1.1" xmlns="http://www.w3.org/2000/svg" xmlns:xlink="http://www.w3.org/1999/xlink">
    <!-- Generator: Sketch 63.1 (92452) - https://sketch.com -->
    <title>event-24px</title>
    <desc>Created with Sketch.</desc>
    <g id="Page-1" stroke="none" stroke-width="1" fill="none" fill-rule="evenodd">
        <g id="10-infor-portal" transform="translate(-468.000000, -641.000000)" fill="#262B49" fill-rule="nonzero">
            <g id="event-24px" transform="translate(468.000000, 641.000000)">
                <path d="M13.2222222,10.45 L8.5,10.45 L8.5,15.2 L13.2222222,15.2 L13.2222222,10.45 Z M12.2777778,0 L12.2777778,1.9 L4.72222222,1.9 L4.72222222,0 L2.83333333,0 L2.83333333,1.9 L1.88888889,1.9 C0.840555556,1.9 0.00944444444,2.755 0.00944444444,3.8 L0,17.1 C0,18.145 0.840555556,19 1.88888889,19 L15.1111111,19 C16.15,19 17,18.145 17,17.1 L17,3.8 C17,2.755 16.15,1.9 15.1111111,1.9 L14.1666667,1.9 L14.1666667,0 L12.2777778,0 Z M15.1111111,17.1 L1.88888889,17.1 L1.88888889,6.65 L15.1111111,6.65 L15.1111111,17.1 Z" id="Shape"></path>
            </g>
        </g>
    </g>
</svg>