<?xml version="1.0" encoding="UTF-8"?>
<svg width="90px" height="91px" viewBox="0 0 90 91" version="1.1" xmlns="http://www.w3.org/2000/svg" xmlns:xlink="http://www.w3.org/1999/xlink">
    <!-- Generator: Sketch 61.2 (89653) - https://sketch.com -->
    <title>info-portal</title>
    <desc>Created with Sketch.</desc>
    <g id="Page-1" stroke="none" stroke-width="1" fill="none" fill-rule="evenodd">
        <g id="01-homepage" transform="translate(-1034.000000, -452.000000)">
            <g id="tiles-copy-9" transform="translate(988.000000, 434.000000)">
                <g id="action-items-copy">
                    <g id="info-portal" transform="translate(46.000000, 18.000000)">
                        <g id="Group-3" transform="translate(0.000000, 0.503403)">
                            <circle id="Oval" fill="#FFEEDD" cx="45" cy="45" r="45"></circle>
                            <g id="Group-7" transform="translate(19.000000, 19.000000)">
                                <path d="M51.8858476,25.946019 C51.8808952,40.2559238 40.2254667,51.8989714 25.9118476,51.8964956 C11.5276571,51.894019 -0.0708190476,40.2373524 0.000658823594,25.736781 C0.0703238095,11.4454476 11.7294667,-0.133219048 26.189181,0.000495238095 C40.2403238,0.131733333 51.8028952,11.4491619 51.8858476,25.946019 Z" id="Stroke-1" stroke="#3D3D3D" stroke-width="2"></path>
                                <path d="M31.290381,37.711019 C31.1541905,38.2582571 31.0353333,38.7485429 30.901619,39.2338762 C30.8830476,39.3019714 30.796381,39.375019 30.7245714,39.401019 C29.328,39.8962571 27.9945714,40.6069238 26.494,40.751781 C25.2559048,40.8706381 24.0091429,40.8768286 22.8589524,40.2813048 C21.4982857,39.5768286 20.7925714,38.4798762 20.8024762,36.9074952 C20.8148571,35.1444476 21.3794286,33.5039714 21.8164762,31.8313048 C22.2634286,30.1153048 22.7190476,28.4005429 23.1115238,26.6709238 C23.2130476,26.2214952 23.1300952,25.7126381 23.0558095,25.2434 C22.971619,24.7184476 22.6100952,24.4175905 22.0826667,24.3111143 C21.2172381,24.1365429 20.3765714,24.2083524 19.5507619,24.5154 C19.3514286,24.5896857 19.1446667,24.6416857 18.8599048,24.7283524 C18.9973333,24.1761619 19.1062857,23.6994952 19.2449524,23.2327333 C19.2746667,23.1336857 19.4059048,23.0371143 19.512381,22.995019 C20.943619,22.4131143 22.3760952,21.8312095 23.9274286,21.6640667 C25.2422857,21.5216857 26.5299048,21.6194952 27.6689524,22.3747333 C28.8067619,23.1299714 29.2722857,24.2219714 29.2561905,25.5838762 C29.236381,27.439781 28.587619,29.1508286 28.1344762,30.9076857 C27.7457143,32.4144476 27.3470476,33.9187333 26.9991429,35.4354 C26.897619,35.8786381 26.9025714,36.3627333 26.9434286,36.8195905 C27.0239048,37.7159714 27.4572381,38.0799714 28.3635238,38.1715905 C29.2710476,38.2619714 30.1302857,38.0812095 30.9820952,37.8063524 C31.0600952,37.7803524 31.1393333,37.7580667 31.290381,37.711019" id="Fill-3" fill="#A61127"></path>
                                <path d="M28.0693524,11.8186095 C30.0082095,11.8087048 31.6004,13.2238476 31.6709714,15.009181 C31.7539238,17.0854667 29.8744952,18.7606095 27.7412571,18.5377524 C26.4251619,18.4003238 25.398781,17.7936571 24.7970667,16.6273714 C23.7038286,14.5052762 25.2452571,11.9708952 27.6768762,11.8198476 C27.8068762,11.811181 27.9393524,11.8186095 28.0693524,11.8186095" id="Fill-5" fill="#A61127"></path>
                            </g>
                        </g>
                    </g>
                </g>
            </g>
        </g>
    </g>
</svg>