<?xml version="1.0" encoding="UTF-8"?>
<svg width="90px" height="91px" viewBox="0 0 90 91" version="1.1" xmlns="http://www.w3.org/2000/svg" xmlns:xlink="http://www.w3.org/1999/xlink">
    <!-- Generator: Sketch 61.2 (89653) - https://sketch.com -->
    <title>oee-scorecard</title>
    <desc>Created with Sketch.</desc>
    <defs>
        <polygon id="path-1" points="0 0.605857627 49.7438192 0.605857627 49.7438192 51.9049544 0 51.9049544"></polygon>
    </defs>
    <g id="Page-1" stroke="none" stroke-width="1" fill="none" fill-rule="evenodd">
        <g id="01-homepage" transform="translate(-1245.000000, -452.000000)">
            <g id="tiles-copy-11" transform="translate(1199.000000, 434.000000)">
                <g id="action-items-copy">
                    <g id="oee-scorecard" transform="translate(46.000000, 18.000000)">
                        <g id="Group-3" transform="translate(0.000000, 0.503403)">
                            <circle id="Oval" fill="#FFEEDD" cx="45" cy="45" r="45"></circle>
                            <g id="Group-12" transform="translate(17.000000, 18.000000)">
                                <g id="Group-3" transform="translate(0.000000, 0.288879)">
                                    <mask id="mask-2" fill="white">
                                        <use xlink:href="#path-1"></use>
                                    </mask>
                                    <g id="Clip-2"></g>
                                    <path d="M7.8186061,32.4829852 C4.46893831,32.4740583 1.75108068,35.1677532 1.73490889,38.5120515 C1.71975864,41.8402414 4.44835525,44.5903159 7.77475525,44.5974861 C11.1154739,44.6037397 13.8512298,41.8849871 13.85571,38.5541125 C13.860179,35.1999702 11.1682739,32.4928515 7.8186061,32.4829852 L7.8186061,32.4829852 Z M39.9093722,12.4404854 L39.9093722,11.8883227 L39.9093722,6.92512271 C39.9093722,6.22529898 39.9084773,6.22261424 39.1853858,6.22171932 C37.8644908,6.22082441 36.5435959,6.20471593 35.222701,6.22798373 C34.3412095,6.24319729 33.7532502,5.90402441 33.3791756,5.07712271 C32.7455756,3.67926508 31.6493044,2.78256 30.1288434,2.52840407 C29.2643553,2.38432271 28.3667553,2.32436339 27.4915281,2.37089898 C25.5692502,2.47202441 24.0765315,3.33830237 23.2388908,5.13081763 C22.8630264,5.93803119 22.2679078,6.24588203 21.4069993,6.22887864 C20.0422536,6.20203119 18.6775078,6.22887864 17.312762,6.21813966 C16.9127349,6.21456 16.722118,6.31031593 16.7301722,6.77656678 C16.7579146,8.53239051 16.7409112,10.2891092 16.742701,12.0458278 C16.742701,12.1711159 16.7597044,12.2964041 16.7704434,12.4404854 L39.9093722,12.4404854 Z M41.6401383,7.62673627 L41.6401383,8.10730576 C41.6383485,9.47205153 41.6562468,10.8367973 41.6311892,12.2006481 C41.6088163,13.4759024 40.8687214,14.1891498 39.6024163,14.1900447 C32.0806536,14.1927295 24.5588908,14.1927295 17.0380231,14.1900447 C15.8764231,14.1891498 15.1542264,13.6271431 15.0692095,12.4852312 C14.9707688,11.1714956 15.0155146,9.84702102 14.9985112,8.52702102 C14.9958264,8.22722441 14.9985112,7.92653288 14.9985112,7.53992949 C13.4995281,7.58646508 12.0488705,7.56946169 10.6107417,7.69564475 C9.54489763,7.78961085 8.89160949,8.46706169 8.72962983,9.40403797 C8.66967051,9.74589559 8.64192814,10.0967024 8.64192814,10.4439295 C8.63655864,17.0779363 8.63745356,23.7119431 8.63745356,30.3468447 L8.63745356,30.8023566 C12.8238671,31.4180583 15.3967485,34.5923227 15.5274061,37.8918753 C15.7171281,42.6349261 13.1299281,45.2794007 8.63834847,46.3175024 C8.63834847,46.6665193 8.61508068,47.0307498 8.64282305,47.3905058 C8.71889085,48.3632786 8.96051797,49.2626685 9.9189722,49.7584515 C10.5785247,50.0994142 11.2953519,50.1763769 12.0300773,50.1763769 C22.8478129,50.1719024 33.6655485,50.1531092 44.4832841,50.1942976 C46.2516366,50.2005397 48.0307281,48.8868041 48.0164953,46.6351973 C47.9752434,39.6092176 48.0065654,32.5823431 48.0092502,25.5563634 C48.01104,20.6933939 48.0128298,15.8295295 48.0119349,10.96656 C48.0119349,9.22952949 46.8610739,7.82272271 45.1446264,7.64821424 C44.0116637,7.53366508 42.858118,7.62673627 41.6401383,7.62673627 L41.6401383,7.62673627 Z M6.92727051,30.7996719 L6.92727051,30.2224515 C6.92727051,23.660038 6.92279593,17.0967295 6.93532475,10.5343159 C6.93621966,9.94367186 6.96396203,9.33423458 7.11072814,8.76775322 C7.53402305,7.14079729 8.68398915,6.22082441 10.2966264,6.02931254 C11.7016434,5.86196339 13.1326129,5.89954983 14.5537383,5.88344136 C14.9421315,5.87896678 15.1613858,5.8037939 15.3475281,5.42345492 C15.6652231,4.77822102 16.2871892,4.53390915 16.975379,4.52406508 C18.3982942,4.50258712 19.8221044,4.50527186 21.2450197,4.51869559 C21.5340773,4.52138034 21.6772637,4.42741424 21.8097112,4.17146847 C22.9015078,2.05051932 24.6653858,0.937244746 27.0216976,0.678614237 C28.3810739,0.52916339 29.7144976,0.603441356 31.0300231,0.959617627 C32.7240976,1.41870915 33.9483417,2.47649898 34.7636095,4.00411932 C34.9792841,4.40593627 35.2182264,4.5365939 35.6674739,4.52406508 C36.9006671,4.48826847 38.1356502,4.50974644 39.3706332,4.51243119 C40.3004502,4.51511593 41.0915553,4.75405831 41.4835281,5.71877695 C41.5202197,5.80737356 41.7376841,5.86375322 41.8728163,5.86643797 C43.0200976,5.88791593 44.1691688,5.85032949 45.3128705,5.91207864 C47.4400841,6.0266278 49.4822807,8.04108203 49.669318,10.1620312 C49.7131688,10.6667634 49.7400163,11.1741803 49.7400163,11.6815973 C49.7444908,23.3691905 49.7444908,35.0567837 49.742701,46.7452719 C49.7418061,48.8563769 48.8048298,50.4430617 46.9219281,51.3773532 C46.2820637,51.6950481 45.5061722,51.8794007 44.7920298,51.8811905 C33.8132095,51.9125125 22.8343892,51.9071431 11.8564637,51.897299 C10.4738197,51.8964041 9.17619254,51.5957125 8.15419932,50.5594007 C7.44095186,49.8354142 7.0794061,48.951238 6.97738576,47.9587769 C6.92995525,47.4978956 6.93890441,47.0307498 6.94248407,46.5662888 C6.9442739,46.3183973 6.86104678,46.2101125 6.60599593,46.1680515 C3.29838915,45.6284176 0.796206102,43.2882142 0.147392542,39.9967159 C-0.63655322,36.0161329 1.78061288,32.2216922 5.63501288,31.0923092 C6.03593492,30.9741803 6.45207051,30.9052719 6.92727051,30.7996719 L6.92727051,30.7996719 Z" id="Fill-1" fill="#A61127" mask="url(#mask-2)"></path>
                                </g>
                                <path d="M28.3212041,22.2334536 C24.9661668,22.2334536 21.6120244,22.2307688 18.2569871,22.2370397 C17.8489058,22.2379281 17.5043634,22.1457519 17.3021125,21.7672027 C17.0103702,21.2266739 17.3584922,20.5903892 17.993882,20.5107417 C18.237299,20.4803146 18.4878753,20.5000027 18.7339769,20.5000027 C25.2543295,20.5000027 31.774682,20.5000027 38.2959295,20.5017925 C38.4677532,20.5017925 38.6476312,20.5000027 38.8131905,20.5420637 C39.230221,20.6494536 39.5076447,21.05664 39.4602142,21.4557722 C39.4127837,21.8683281 39.071821,22.1958671 38.6458414,22.2298739 C38.5303973,22.239718 38.4131634,22.2334536 38.2968244,22.2334536 C34.9722142,22.2334536 31.6467092,22.2334536 28.3212041,22.2334536" id="Fill-4" fill="#3D3D3D"></path>
                                <path d="M28.3640705,26.5241247 C24.9812908,26.5241247 21.5985112,26.5259146 18.2157315,26.5223349 C17.4989044,26.5223349 17.0899281,26.0802468 17.2331146,25.4815485 C17.3252908,25.1012095 17.5642332,24.8783756 17.9553112,24.8363146 C18.1137112,24.8193112 18.2747959,24.8228908 18.4331959,24.8228908 C25.0394603,24.8219959 31.6448298,24.8219959 38.2501993,24.8219959 C39.056518,24.8219959 39.4645993,25.1083688 39.4645993,25.6739553 C39.4645993,26.2368569 39.0556231,26.5241247 38.2501993,26.5241247 L28.3640705,26.5241247 Z" id="Fill-6" fill="#3D3D3D"></path>
                                <path d="M29.7238942,7.97861695 C29.7292637,7.18482712 29.1269858,6.55480678 28.353779,6.54496271 C27.582362,6.53511864 26.9371281,7.15976949 26.9237044,7.92850169 C26.9102807,8.7088678 27.5259824,9.34336271 28.3027688,9.35141695 C29.1090875,9.35857627 29.7176298,8.77061695 29.7238942,7.97861695 M31.4546608,7.96250847 C31.4537654,9.71027797 30.0827553,11.0812881 28.3358807,11.0821848 C26.6086942,11.0839729 25.196518,9.68701017 25.1938228,7.9696678 C25.1893586,6.24158644 26.622118,4.8079322 28.3484095,4.81328666 C30.0568027,4.81867119 31.4555553,6.23621695 31.4546608,7.96250847" id="Fill-8" fill="#A61127"></path>
                                <path d="M6.10564881,40.6268258 C7.00056407,39.8249817 7.89637424,39.0231376 8.78949966,38.2203986 C9.44815729,37.6288597 10.1023403,37.0319512 10.760998,36.4413071 C11.2326183,36.019802 11.7633031,36.0054834 12.1096353,36.3974563 C12.4335946,36.7661614 12.3745302,37.3040054 11.932442,37.7040325 C10.1569302,39.3113003 8.37873356,40.9131986 6.59427254,42.5097275 C6.09043525,42.9607647 5.60539119,42.8694834 5.17583186,42.3566969 C4.70421153,41.7937953 4.19410983,41.2586359 3.66521492,40.7485342 C3.23118102,40.328819 3.12826576,39.8554088 3.4647539,39.4526969 C3.80213695,39.0481953 4.29881492,39.0231376 4.76864542,39.4195851 C5.21968271,39.8017139 5.64655729,40.2106902 6.10564881,40.6268258" id="Fill-10" fill="#3D3D3D"></path>
                            </g>
                        </g>
                    </g>
                </g>
            </g>
        </g>
    </g>
</svg>