<?xml version="1.0" encoding="UTF-8"?>
<svg width="46px" height="46px" viewBox="0 0 46 46" version="1.1" xmlns="http://www.w3.org/2000/svg" xmlns:xlink="http://www.w3.org/1999/xlink">
    <!-- Generator: Sketch 63.1 (92452) - https://sketch.com -->
    <title>order</title>
    <desc>Created with Sketch.</desc>
    <defs>
        <filter x="-36.1%" y="-36.1%" width="172.2%" height="172.2%" filterUnits="objectBoundingBox" id="filter-1">
            <feOffset dx="0" dy="2" in="SourceAlpha" result="shadowOffsetOuter1"></feOffset>
            <feGaussianBlur stdDeviation="2" in="shadowOffsetOuter1" result="shadowBlurOuter1"></feGaussianBlur>
            <feColorMatrix values="0 0 0 0 0.361384737   0 0 0 0 0.361384737   0 0 0 0 0.361384737  0 0 0 0.5 0" type="matrix" in="shadowBlurOuter1" result="shadowMatrixOuter1"></feColorMatrix>
            <feMerge>
                <feMergeNode in="shadowMatrixOuter1"></feMergeNode>
                <feMergeNode in="SourceGraphic"></feMergeNode>
            </feMerge>
        </filter>
        <polygon id="path-2" points="0 0 19 0 19 20 0 20"></polygon>
    </defs>
    <g id="Page-1" stroke="none" stroke-width="1" fill="none" fill-rule="evenodd">
        <g id="07-after-login-bakery" transform="translate(-1313.000000, -1368.000000)">
            <g id="order" filter="url(#filter-1)" transform="translate(1318.000000, 1371.000000)">
                <circle id="Oval" stroke="#A86C48" fill="#FFFFFF" cx="18" cy="18" r="18"></circle>
                <g id="Group-3" transform="translate(9.000000, 8.000000)">
                    <mask id="mask-3" fill="white">
                        <use xlink:href="#path-2"></use>
                    </mask>
                    <g id="Clip-2"></g>
                    <path d="M17.1106454,5.27501795 C16.073629,4.72608332 15.0662931,4.19037242 14.05461,3.66352742 C13.9950992,3.63257189 13.886271,3.648801 13.8213637,3.68291219 C11.3845701,4.96681512 8.95017494,6.25537641 6.51562985,7.5439377 C6.46796127,7.56918299 6.42254121,7.59848555 6.37352353,7.6273373 C6.39076216,7.64567018 6.39720791,7.65709067 6.40680159,7.66219983 C7.41248862,8.19565669 8.41772594,8.7298649 9.42641099,9.25776179 C9.47273046,9.28195518 9.55907354,9.26572607 9.61108925,9.23822675 C11.6262108,8.17717354 13.6396835,7.11296467 15.6530063,6.04860553 C16.1298419,5.79675378 16.6056283,5.5430988 17.1106454,5.27501795 L17.1106454,5.27501795 Z M1.90721781,5.26870663 C1.9428943,5.29274975 1.96507967,5.3107821 1.98981337,5.32385555 C2.98036037,5.84904758 3.97045768,6.3752915 4.96385281,6.89492357 C5.01631823,6.92242289 5.10985656,6.917464 5.16412079,6.88876252 C7.62115106,5.59509206 10.0760827,4.29691352 12.5307146,2.99873498 C12.5672905,2.97935021 12.5993693,2.95155035 12.6477874,2.9177397 C11.6082227,2.36745265 10.5909933,1.82693312 9.56971652,1.29407734 C9.52084874,1.26853152 9.42791001,1.29407734 9.37034795,1.32428152 C7.43872132,2.34220737 5.50874361,3.36343915 3.57861599,4.38437039 C3.02503093,4.67709545 2.47159576,4.97012105 1.90721781,5.26870663 L1.90721781,5.26870663 Z M17.7896977,6.29459676 C17.7345341,6.3225469 17.699757,6.33937709 17.6657294,6.35740943 C15.190711,7.66806034 12.7161423,8.97931233 10.2400746,10.2874087 C10.1418893,10.3392517 10.1026152,10.3942503 10.1027647,10.5110097 C10.1069624,13.0828729 10.1059131,15.6545858 10.1065127,18.2264489 C10.1065127,18.2745352 10.113558,18.3224711 10.1183548,18.3836308 C10.1822128,18.3522245 10.2286821,18.3310365 10.2736525,18.3072939 C12.7332311,17.0056592 15.19236,15.7031228 17.6535875,14.404794 C17.7615163,14.3478419 17.7923959,14.2817233 17.7922466,14.1639119 C17.7889482,11.5979093 17.7896977,9.0317564 17.7896977,6.46575377 L17.7896977,6.29459676 Z M8.88811585,18.3882892 C8.89156358,18.3387002 8.89606061,18.3060918 8.89606061,18.2734833 C8.89636041,15.6783283 8.89576081,13.0833237 8.89860948,10.4881688 C8.89875883,10.3933487 8.86802909,10.3481176 8.78573334,10.3046897 C6.31026523,8.99584198 3.83614622,7.68413918 1.36172741,6.37348827 C1.31810617,6.35034676 1.271337,6.33366684 1.21617337,6.30977399 C1.21302544,6.356057 1.20942781,6.38460822 1.20942781,6.41300916 C1.20912801,9.00816408 1.20987752,11.6031687 1.20657927,14.1983237 C1.20642979,14.3021599 1.24660331,14.349044 1.33144738,14.3938243 C3.79612261,15.6969618 6.25959863,17.0026538 8.72337445,18.3077447 C8.77284184,18.3337414 8.82395814,18.3570331 8.88811585,18.3882892 L8.88811585,18.3882892 Z M0.00287320141,9.97214317 C0.00287320141,8.41700372 0.00467201559,6.86216481 0.00122428841,5.30702536 C0.000624683685,5.02557051 0.129089996,4.84735084 0.372229713,4.71947146 C1.90691801,3.91117162 3.43875819,3.09776261 4.97149777,2.28555575 C6.32600485,1.56801871 7.68291035,0.854839481 9.03247069,0.128135994 C9.35445843,-0.0452750529 9.63822136,-0.0409172363 9.960359,0.130540307 C12.8500041,1.66764741 15.7442961,3.19603889 18.6376887,4.72623359 C18.8718344,4.85005569 19,5.03323426 19,5.30567293 C18.9977514,8.3983703 18.9950531,11.4910677 18.9989506,14.583765 C18.9992504,14.9103007 18.8716845,15.1220305 18.5825251,15.2744038 C15.7378504,16.773643 12.8966234,18.2791935 10.0544969,19.7833916 C9.98839052,19.8182541 9.922434,19.8541685 9.858726,19.8930884 C9.63267502,20.0317871 9.40512503,20.0334401 9.17217859,19.9102191 C6.24925545,18.361992 3.3264822,16.8134644 0.40220995,15.2676417 C0.130289206,15.1238337 -0.00147393286,14.9179645 1.24338528e-05,14.6025487 C0.00647082977,13.0591303 0.00287320141,11.5155616 0.00287320141,9.97214317 L0.00287320141,9.97214317 Z" id="Fill-1" fill="#A86C48" mask="url(#mask-3)"></path>
                </g>
            </g>
        </g>
    </g>
</svg>