<?xml version="1.0" encoding="UTF-8"?>
<svg width="90px" height="91px" viewBox="0 0 90 91" version="1.1" xmlns="http://www.w3.org/2000/svg" xmlns:xlink="http://www.w3.org/1999/xlink">
    <!-- Generator: Sketch 61.2 (89653) - https://sketch.com -->
    <title>schichtbericht</title>
    <desc>Created with Sketch.</desc>
    <defs>
        <polygon id="path-1" points="0 0.143165217 40.4153948 0.143165217 40.4153948 54.0521739 0 54.0521739"></polygon>
    </defs>
    <g id="Page-1" stroke="none" stroke-width="1" fill="none" fill-rule="evenodd">
        <g id="01-homepage" transform="translate(-828.000000, -239.000000)">
            <g id="tiles-copy-6" transform="translate(782.000000, 221.000000)">
                <g id="action-items-copy">
                    <g id="schichtbericht" transform="translate(46.000000, 18.000000)">
                        <g id="Group-3" transform="translate(0.000000, 0.503403)">
                            <circle id="Oval" fill="#FFEEDD" cx="45" cy="45" r="45"></circle>
                            <g id="Group-28" transform="translate(25.000000, 17.000000)">
                                <g id="Group-3" transform="translate(0.000000, 0.587562)">
                                    <mask id="mask-2" fill="white">
                                        <use xlink:href="#path-1"></use>
                                    </mask>
                                    <g id="Clip-2"></g>
                                    <path d="M34.4338643,52.0152835 C35.7464557,50.7026922 37.0707339,49.376953 38.3665252,48.0811617 L34.4250991,48.0811617 C34.4250991,49.3645357 34.4243687,50.61504 34.4250991,51.8648139 C34.4250991,51.9385878 34.4338643,52.0116313 34.4338643,52.0152835 L34.4338643,52.0152835 Z M1.19031652,52.8603965 L33.2308383,52.8603965 L33.2308383,46.8496487 L39.2065252,46.8496487 L39.2065252,1.31872696 L1.19031652,1.31872696 L1.19031652,52.8603965 Z M40.4095513,0.142726957 L40.4095513,0.63357913 C40.4095513,16.2334748 40.4080904,31.8333704 40.4153948,47.4332661 C40.4153948,47.7546574 40.3277426,47.9781704 40.0969252,48.207527 C38.2160557,50.0686748 36.3519861,51.9488139 34.4703861,53.8099617 C34.3352557,53.9436313 34.0978643,54.04224 33.9072209,54.04224 C22.728647,54.0531965 11.5486122,54.0524762 0.368577391,54.0524762 L-0.000292173913,54.0524762 L-0.000292173913,0.142726957 L40.4095513,0.142726957 Z" id="Fill-1" fill="#A61127" mask="url(#mask-2)"></path>
                                </g>
                                <path d="M31.2924104,12.5776487 C31.2179061,14.3248487 29.784793,15.6944139 28.0952974,15.6315965 C26.3349496,15.5658574 24.936167,14.10864 25.0099409,12.416953 C25.0880974,10.6514922 26.5409322,9.26731826 28.2362713,9.34547478 C30.0090365,9.42801391 31.3647235,10.861127 31.2924104,12.5776487" id="Fill-4" fill="#A61127"></path>
                                <path d="M15.3819339,12.487367 C15.3819339,14.2287235 13.9670817,15.6443061 12.2381426,15.6326191 C10.4989774,15.6209322 9.10092522,14.2082713 9.10602428,12.4691061 C9.1111513,10.7547757 10.5143165,9.35380174 12.2374122,9.34352045 C13.9685426,9.33334957 15.3819339,10.74528 15.3819339,12.487367" id="Fill-6" fill="#A61127"></path>
                                <path d="M13.2605322,33.7178191 C13.3401496,35.639593 11.6309322,37.3407757 9.68578435,37.3495798 C7.58432348,37.3590365 6.0014713,35.6322887 6.08474087,33.4205322 C6.15121043,31.674793 7.92543652,30.0437322 9.67336696,30.179593 L9.67336696,31.9370191 L9.67336696,33.7178191 L13.2605322,33.7178191 Z" id="Fill-8" fill="#3D3D3D"></path>
                                <path d="M9.66613565,39.5466887 L9.66613565,43.0841843 L13.2379617,43.0841843 C13.3614052,44.7072104 11.9509357,46.5924626 9.83486609,46.68888 C7.70345739,46.7867583 6.04390957,45.1111409 6.08481391,42.8460626 C6.11622261,41.0601496 7.91820522,39.3764974 9.66613565,39.5466887" id="Fill-10" fill="#3D3D3D"></path>
                                <path d="M5.87342609,22.9164417 L5.87342609,21.6915026 C5.87342609,20.9559548 5.87561739,20.2211374 5.87265686,19.48632 C5.86612174,17.8304243 6.69516522,16.7910157 8.30358261,16.4447896 C9.03693913,16.2870157 9.0362087,16.2870157 9.35102609,16.9677809 C10.1851826,18.7770678 11.0208,20.5863548 11.8542261,22.3956417 C11.928,22.5548765 11.9937391,22.7177635 12.0792,22.9164417 L5.87342609,22.9164417 Z" id="Fill-12" fill="#A61127"></path>
                                <path d="M18.6168104,22.9171722 L12.4380626,22.9171722 C12.4709322,22.8149113 12.4913843,22.7177635 12.5322887,22.6293809 C13.4526365,20.6301809 14.3722539,18.62952 15.30648,16.6361635 C15.3612626,16.517833 15.5387583,16.3637113 15.6432104,16.3753983 C16.6599757,16.4893461 17.6212278,16.7888243 18.1566365,17.7354678 C18.4130191,18.187607 18.5693322,18.7478504 18.5970887,19.26792 C18.6606365,20.4651026 18.6168104,21.6673983 18.6168104,22.9171722" id="Fill-14" fill="#A61127"></path>
                                <path d="M27.980473,22.9249878 L21.8331339,22.9249878 C21.8207165,22.8168835 21.8009948,22.7190052 21.8009948,22.621127 C21.7973426,21.4480487 21.7885774,20.2749704 21.798073,19.1018922 C21.8082991,17.7717704 22.7301078,16.7659617 24.2092383,16.4460313 C24.9484383,16.2860661 24.9491687,16.2853357 25.2639861,16.9682922 C26.1193252,18.8235965 26.9753948,20.6796313 27.829273,22.5363965 C27.8811339,22.6503443 27.9205774,22.7701357 27.980473,22.9249878" id="Fill-16" fill="#A61127"></path>
                                <path d="M34.4866748,22.9289322 L28.3327617,22.9289322 C28.3846226,22.7945322 28.4218748,22.6776626 28.4730052,22.5666365 C29.3809357,20.59008 30.2925183,18.6157148 31.1967965,16.6376974 C31.28664,16.4412104 31.3889009,16.2848974 31.6248313,16.3674365 C32.2267096,16.5763409 32.8665704,16.7246191 33.4114748,17.0372452 C34.0812835,17.4214539 34.4465009,18.1080626 34.473527,18.87648 C34.5202748,20.2139061 34.4866748,21.5542539 34.4866748,22.9289322" id="Fill-18" fill="#A61127"></path>
                                <polygon id="Fill-20" fill="#3D3D3D" points="16.7466783 35.7733357 34.300487 35.7733357 34.300487 34.6170574 16.7466783 34.6170574"></polygon>
                                <polygon id="Fill-20-Copy" fill="#3D3D3D" points="16.7466783 32.8084522 34.300487 32.8084522 34.300487 31.6521739 16.7466783 31.6521739"></polygon>
                                <polygon id="Fill-22" fill="#3D3D3D" points="16.7532522 41.82864 34.3150957 41.82864 34.3150957 40.7125357 16.7532522 40.7125357"></polygon>
                                <polygon id="Fill-23" fill="#3D3D3D" points="16.7539826 44.7774052 34.3012174 44.7774052 34.3012174 43.6474226 16.7539826 43.6474226"></polygon>
                                <path d="M14.2577217,42.0903548 L10.6902783,42.0903548 L10.6902783,38.5623548 C11.9875304,38.3775548 14.2124348,39.6265983 14.2577217,42.0903548" id="Fill-24" fill="#3D3D3D"></path>
                                <path d="M10.6804904,32.7091617 L10.6804904,29.17824 C12.2889078,29.0650226 14.2260209,30.4908313 14.25816,32.7091617 L10.6804904,32.7091617 Z" id="Fill-25" fill="#3D3D3D"></path>
                                <path d="M10.3601948,16.6884626 L14.1343513,16.6884626 C13.5032557,18.0879757 12.8860383,19.4553496 12.2476383,20.8687409 C11.6114296,19.4590017 10.9978643,18.100393 10.3601948,16.6884626" id="Fill-26" fill="#A61127"></path>
                                <path d="M28.1566539,20.8685217 C27.506567,19.4295652 26.9003061,18.0870261 26.2765148,16.7035826 L30.0360626,16.7035826 C29.4195757,18.0702261 28.810393,19.4208 28.1566539,20.8685217" id="Fill-27" fill="#A61127"></path>
                            </g>
                        </g>
                    </g>
                </g>
            </g>
        </g>
    </g>
</svg>