<?xml version="1.0" encoding="UTF-8"?>
<svg width="93px" height="90px" viewBox="0 0 93 90" version="1.1" xmlns="http://www.w3.org/2000/svg" xmlns:xlink="http://www.w3.org/1999/xlink">
    <!-- Generator: Sketch 61.2 (89653) - https://sketch.com -->
    <title>teigabteilung</title>
    <desc>Created with Sketch.</desc>
    <g id="Page-1" stroke="none" stroke-width="1" fill="none" fill-rule="evenodd">
        <g id="01-homepage" transform="translate(-104.000000, -240.000000)">
            <g id="tiles" transform="translate(57.000000, 221.000000)">
                <g id="action-items-copy">
                    <g id="teigabteilung" transform="translate(47.000000, 18.000000)">
                        <g id="Group-3" transform="translate(0.000000, 0.503403)">
                            <ellipse id="Oval" fill="#FFEEDD" cx="46.2430939" cy="45.4965965" rx="46.2430939" ry="45"></ellipse>
                            <path d="M52.6586539,21.9052834 C52.8668472,22.0078171 53.0826573,22.0992327 53.2832338,22.2153552 C55.1265064,23.2839294 57.0497557,24.2437931 58.7914705,25.4519614 C62.1060605,27.7534108 64.3822229,30.7874203 64.9902997,34.8158833 C65.4181116,37.6522374 65.0817016,40.3885286 63.7716071,42.990167 C62.7331794,45.05443 61.1691906,46.7122642 59.4934882,48.2823888 C59.1710425,48.5838132 59.0479037,48.8790609 59.0491732,49.3064905 C59.0656763,52.7012211 59.0783711,56.0971869 59.0529816,59.4919174 C59.0275922,62.8730591 59.169773,66.2566715 58.9577713,69.6625201 C60.4798676,69.6625201 62.0527427,69.6637555 63.6268873,69.6625201 C64.8773167,69.6612848 65.3584464,69.2005008 65.3597159,68.0022152 C65.3597159,61.8217798 65.3597159,55.6413443 65.3597159,49.4596734 L65.3597159,48.9025324 C64.9890302,48.9025324 64.6881655,48.9025324 64.3860313,48.9025324 C64.0635855,48.9025324 63.7411398,48.9124152 63.421233,48.9000617 C62.6392385,48.8691781 62.0920963,48.3145078 62.085749,47.5621822 C62.0781321,46.7505599 62.6455859,46.2218319 63.6053063,46.1909482 C64.3327135,46.1662413 65.0626596,46.1958896 65.7900667,46.1773594 C65.9995295,46.172418 66.2470764,46.1378283 66.4070298,46.0241765 C67.0608076,45.5596865 67.7399749,45.1100206 68.3175844,44.5627623 C70.9872829,42.0327739 71.7908583,38.8690531 71.404939,35.3779656 C70.9491988,31.2630285 68.8329898,28.0869542 65.3622548,25.7509151 C61.5462236,23.182631 57.2249427,22.1424698 52.6586539,21.9052834 M42.21979,69.6625201 L43.6936464,69.6625201 C47.2672085,69.6625201 50.8407707,69.6637555 54.4143329,69.6625201 C55.5911329,69.6612848 56.1065384,69.1535576 56.1103468,67.9997446 C56.1116162,67.8675625 56.1103468,67.7353805 56.1103468,67.6031985 C56.1103468,61.2078128 56.1154247,54.8124272 56.1039994,48.4170415 C56.1027299,47.7968979 56.2639528,47.2867 56.7806277,46.9000368 C56.9685095,46.7604427 57.1373492,46.5961417 57.3125363,46.4417234 C58.6416729,45.2644388 60.0076242,44.104449 60.8835595,42.5503839 C63.1698776,38.4836252 62.863935,34.4526916 60.5065265,30.5329391 C58.8181294,27.7249979 56.2474497,25.8324479 53.3073538,24.396976 C50.4218451,22.9886817 47.3459158,22.2141198 44.1379614,21.8830471 C40.9795164,21.5581512 37.8883533,21.76816 34.8809754,22.7934971 C29.7929338,24.5266873 25.7864818,27.5619322 23.2043769,32.2142448 C21.6149986,35.0790119 21.3991885,38.0228412 23.0152256,41.0000248 C24.2161456,43.2125293 25.7991766,45.1260801 27.650066,46.8382695 C28.1362735,47.2879354 28.3635089,47.7709556 28.36097,48.4429838 C28.3406584,54.9371971 28.3647784,61.4314105 28.3343111,67.9256238 C28.3279637,69.0522593 28.9792026,69.6859917 30.1255353,69.6762228 C34.1573767,69.6427546 38.1879486,69.6625201 42.21979,69.6625201 M46.8368577,72.6409391 C41.1610508,72.6409391 35.4865133,72.6421767 29.8119759,72.6409391 C27.047067,72.6409391 25.3040827,70.9485152 25.3028132,68.2641086 C25.3028132,61.9008419 25.3002743,55.5375752 25.3116995,49.1743085 C25.3116995,48.8123522 25.2050639,48.561577 24.9410138,48.3145078 C23.019034,46.5158442 21.4321947,44.4750528 20.3125209,42.1118361 C18.4552841,38.1933189 18.7637657,34.3340984 20.9244061,30.654003 C24.5487472,24.4797442 30.0772954,20.818179 37.2041082,19.446945 C38.7185877,19.1566388 40.2927323,19.0775766 41.8414875,19.0528697 C45.3642708,18.9972791 48.8883236,19.0256921 52.4111069,19.0380456 C56.3033064,19.050399 60.0977567,19.5939512 63.6941693,21.1220741 C67.8428021,22.886148 71.0164807,25.6483814 72.8318249,29.7447884 C74.0314755,32.4563726 74.407239,35.3087863 74.2206267,38.2476741 C74.0771764,40.4910623 73.5122616,42.597327 72.2224786,44.4849355 C71.380819,45.7202814 70.3487387,46.7913263 69.0640336,47.5905951 C68.4927715,47.9476101 68.3277402,48.3565096 68.3302791,48.9976541 C68.3556685,55.3769802 68.3455128,61.7563064 68.3442433,68.1368679 C68.3442433,69.1770292 68.1766731,70.1690119 67.4936974,71.0189299 C66.5949116,72.1381533 65.4066863,72.6434098 63.9620278,72.6421767 C58.2532146,72.6397037 52.5444014,72.6409391 46.8368577,72.6409391" id="Fill-1" fill="#A61127"></path>
                        </g>
                        <path d="M49.8339564,37.4621177 C49.8364918,39.1335407 48.4591153,40.5257755 46.7542151,40.4924212 C45.0112308,40.4590668 43.6706689,39.3015477 43.6325848,37.4423522 C43.5995785,35.7672231 45.0391592,34.4392263 46.7465983,34.4416935 C48.4591153,34.4441677 49.8326834,35.7869887 49.8339564,37.4621177" id="Fill-4" fill="#3D3D3D"></path>
                        <path d="M45.0493149,58.9124167 C43.9309106,58.9050046 42.9915017,57.9772598 43.0029269,56.8889201 C43.0130827,55.803051 43.9664558,54.8753063 45.0810517,54.8678942 C46.2299234,54.8592468 47.1667933,55.7845209 47.160478,56.9198037 C47.1540986,58.0624987 46.2438876,58.9210641 45.0493149,58.9124167" id="Fill-6" fill="#3D3D3D"></path>
                        <path d="M32.8083094,42.9397649 C33.9647979,42.9298821 34.8712005,43.7946243 34.8877036,44.9237304 C34.9042068,46.0565426 34.0282714,46.9422856 32.8679745,46.9657572 C31.6949829,46.9904641 30.7619214,46.101015 30.7581009,44.9570847 C30.7543045,43.83292 31.6530903,42.9496477 32.8083094,42.9397649" id="Fill-8" fill="#3D3D3D"></path>
                    </g>
                </g>
            </g>
        </g>
    </g>
</svg>