<?xml version="1.0" encoding="UTF-8"?>
<svg width="46px" height="46px" viewBox="0 0 46 46" version="1.1" xmlns="http://www.w3.org/2000/svg" xmlns:xlink="http://www.w3.org/1999/xlink">
    <!-- Generator: Sketch 63.1 (92452) - https://sketch.com -->
    <title>waste</title>
    <desc>Created with Sketch.</desc>
    <defs>
        <filter x="-36.1%" y="-36.1%" width="172.2%" height="172.2%" filterUnits="objectBoundingBox" id="filter-1">
            <feOffset dx="0" dy="2" in="SourceAlpha" result="shadowOffsetOuter1"></feOffset>
            <feGaussianBlur stdDeviation="2" in="shadowOffsetOuter1" result="shadowBlurOuter1"></feGaussianBlur>
            <feColorMatrix values="0 0 0 0 0.361384737   0 0 0 0 0.361384737   0 0 0 0 0.361384737  0 0 0 0.5 0" type="matrix" in="shadowBlurOuter1" result="shadowMatrixOuter1"></feColorMatrix>
            <feMerge>
                <feMergeNode in="shadowMatrixOuter1"></feMergeNode>
                <feMergeNode in="SourceGraphic"></feMergeNode>
            </feMerge>
        </filter>
    </defs>
    <g id="Page-1" stroke="none" stroke-width="1" fill="none" fill-rule="evenodd">
        <g id="07-after-login-bakery" transform="translate(-1313.000000, -1414.000000)">
            <g id="waste" filter="url(#filter-1)" transform="translate(1318.000000, 1417.000000)">
                <circle id="Oval" stroke="#A86C48" fill="#FFFFFF" cx="18" cy="18" r="18"></circle>
                <g id="Group-9" transform="translate(11.000000, 7.000000)" fill="#A86C48">
                    <path d="M6.52679895,12.0939622 C6.17402235,11.7188314 5.87310392,11.3893624 5.56230774,11.0703373 C5.03008545,10.5242178 5.09299728,10.416014 4.47646138,11.0500566 C4.13438568,11.4021137 4.1280357,11.4566406 4.46105681,11.8011683 C4.83805739,12.1911149 5.21399965,12.5821544 5.61404831,12.9971178 C5.30642712,13.3070349 5.02373547,13.5848915 4.74845214,13.870399 C4.04466283,14.6003799 4.01314812,14.4100821 4.78020203,15.2198497 C4.95071072,15.3998251 5.09205654,15.3812446 5.2509236,15.2108631 C5.58359193,14.8541913 5.92072876,14.5021343 6.25798318,14.1501987 C6.32983201,14.0751483 6.41002989,14.0088415 6.51962582,13.9079242 C6.93625498,14.3521548 7.33712678,14.7663896 7.72224123,15.195683 C7.90850727,15.4034683 8.06537526,15.3852522 8.23694228,15.1942257 C8.28350879,15.1424919 8.33266233,15.0930655 8.3813455,15.0432747 C8.89392989,14.5188931 8.92262239,14.5639477 8.37170294,13.988318 C8.05808455,13.6603063 7.75034577,13.3265868 7.45166158,13.0079261 C7.47682631,12.9491487 7.48035408,12.9264392 7.49305404,12.9132022 C7.79561876,12.5972131 8.09712516,12.2798881 8.40310006,11.9672994 C8.92556219,11.4335669 8.92685571,11.4347813 8.39686767,10.8989842 C8.0256291,10.5234891 7.99105699,10.5198459 7.62675637,10.9042062 C7.26516036,11.2858948 6.91226617,11.6763271 6.52679895,12.0939622 M6.50433884,7.0021902 C8.41509446,7.00206876 10.3258501,7.00449757 12.2364881,7 C12.5549278,6.99915418 12.790465,7.12545266 12.9227562,7.42091825 C13.0438761,7.69136703 13.0329401,7.99326898 12.8153945,8.17688755 C12.6350081,8.3289315 12.3721895,8.4124828 12.1352412,8.44624336 C11.9415669,8.47381043 11.8611338,8.52627288 11.8387913,8.7204568 C11.7003853,9.92247834 11.5578635,11.1240141 11.4133427,12.325307 C11.2651766,13.5565958 11.1124243,14.7873988 10.963435,16.0184448 C10.8967602,16.569179 10.8366706,17.1206419 10.7692903,17.6711333 C10.673335,18.4534553 10.1379378,18.9823302 9.36723849,18.9885236 C7.45671805,19.0040681 5.54572724,19.003218 3.63508921,18.9896166 C2.85839274,18.9840303 2.33028618,18.4866086 2.22774578,17.6826702 C2.04277325,16.2324235 1.87826177,14.7793837 1.70457809,13.3275584 C1.52242778,11.8060259 1.33580896,10.2849793 1.16047899,8.76259678 C1.13308001,8.52469415 1.04535623,8.44915794 0.809348691,8.45182964 C0.365320551,8.45656583 0.119905634,8.26602513 0.0257142836,7.90838183 C-0.0546011876,7.60344385 0.055112333,7.27239609 0.328396601,7.12666707 C0.476915547,7.04736619 0.662005667,7.00801936 0.830868063,7.00729071 C2.72198579,6.99915418 4.61322111,7.0021902 6.50433884,7.0021902" id="Fill-1"></path>
                    <path d="M7,3.36779524 C7.0500958,3.32821778 7.11638225,3.23401767 7.19771649,3.21839751 C7.64715006,3.1320554 8.09915509,3.05577535 8.55325538,3.0004819 C8.62344663,2.9919531 8.76382915,3.09851518 8.7783055,3.17086623 C8.87040176,3.62921731 8.94630737,4.09159321 8.9996413,4.5558857 C9.00764139,4.62564936 8.88002092,4.76565583 8.79706761,4.78233011 C8.36401518,4.86915137 7.92496267,4.92588226 7.48838639,4.99497511 C7.34667052,5.01739915 7.25238376,4.96565138 7.22885969,4.8220034 C7.15333504,4.36048996 7.08304854,3.89811405 7,3.36779524" id="Fill-3"></path>
                    <path d="M4,1.7427813 C4.05842576,1.62744389 4.09149694,1.54324881 4.14012383,1.46927039 C4.42061646,1.04189419 4.71041802,0.620672614 4.98515382,0.189726749 C5.12858477,-0.0352858304 5.28046724,-0.0512878192 5.49175536,0.0949457392 C5.92829498,0.397137141 6.36948907,0.692558471 6.81558259,0.980224992 C7.02515591,1.11525716 7.05271523,1.26210618 6.91553106,1.46446979 C6.61164363,1.91301784 6.31057337,2.36353537 6.0156274,2.81799185 C5.88175035,3.02429441 5.74199398,3.05531365 5.53548281,2.9105572 C5.109232,2.61181238 4.66791543,2.33448561 4.2417871,2.03537151 C4.14416586,1.96693223 4.08304542,1.84605567 4,1.7427813" id="Fill-5"></path>
                    <path d="M6,4.57656739 C5.94799351,4.64858818 5.91146803,4.72208128 5.8553494,4.77336696 C5.44474006,5.14782597 5.03001857,5.51786804 4.61686937,5.88950512 C4.47983833,6.01281158 4.35586938,6.06004838 4.20843704,5.88692857 C3.84729433,5.46290158 3.47720166,5.04660425 3.10456915,4.63288348 C2.95834626,4.47056065 2.96415163,4.34295993 3.1303305,4.19756873 C3.53332029,3.84470368 3.93147227,3.48582668 4.32418171,3.12130579 C4.50160849,2.9565291 4.63682535,2.95382985 4.79961774,3.14891172 C5.13028224,3.54521009 5.4798142,3.92531298 5.81821919,4.31510862 C5.88316683,4.38995135 5.93251251,4.47853569 6,4.57656739" id="Fill-7"></path>
                </g>
            </g>
        </g>
    </g>
</svg>